<svg xmlns="http://www.w3.org/2000/svg" width="118.724" height="65.509" viewBox="0 0 118.724 65.509">
  <g id="Calque_3" data-name="Calque 3" transform="translate(5 4.96)">
    <path id="Tracé_9" data-name="Tracé 9" d="M25.644,258.25h107.5a4.442,4.442,0,0,1,4.442,4.442v22.442H21.2V262.692a4.442,4.442,0,0,1,4.444-4.442Z" transform="translate(-25.031 -238.678)" fill="#fff"/>
    <path id="Tracé_10" data-name="Tracé 10" d="M26.691,258.25v19.085h82.852l-1.4,8.416H21.2V261.834S22.369,258.718,26.691,258.25Z" transform="translate(-25.031 -238.678)" fill="#d0dded"/>
    <path id="Tracé_11" data-name="Tracé 11" d="M88.18,181.673,99.831,159.7a2.609,2.609,0,0,1,2.307-1.389h43.949a2.611,2.611,0,0,1,2.214,1.23l13.792,22.143" transform="translate(-76.353 -162.101)" fill="#e9f9ff"/>
    <path id="Tracé_12" data-name="Tracé 12" d="M121.992,158.27l-19.2,23.372H87.52l12.853-22.6Z" transform="translate(-75.848 -162.071)" fill="#d0dded"/>
    <path id="Tracé_13" data-name="Tracé 13" d="M228.108,158.27,203.49,181.642h15.892l19.01-23.372Z" transform="translate(-164.707 -162.071)" fill="#d0dded"/>
    <path id="Tracé_14" data-name="Tracé 14" d="M21.81,253.25h107.5a5.617,5.617,0,0,1,5.61,5.61v23.611H16.2V258.861A5.617,5.617,0,0,1,21.81,253.25Zm110.776,26.883V258.861a3.276,3.276,0,0,0-3.273-3.273H21.81a3.276,3.276,0,0,0-3.273,3.273v21.273Z" transform="translate(-21.2 -234.847)" fill="#018539"/>
    <path id="Tracé_15" data-name="Tracé 15" d="M157.716,178.469l-13.792-22.143a1.434,1.434,0,0,0-1.223-.679H98.754a1.445,1.445,0,0,0-1.274.766L85.828,178.389l-2.065-1.1L95.414,155.32a3.775,3.775,0,0,1,3.341-2.01H142.7a3.759,3.759,0,0,1,3.206,1.78L159.7,177.233Z" transform="translate(-72.969 -158.27)" fill="#018539"/>
    <circle id="Ellipse_6" data-name="Ellipse 6" cx="12.308" cy="12.308" r="12.308" transform="translate(3.259 34.764)" fill="#fff"/>
    <path id="Ellipse_6_-_Contour" data-name="Ellipse 6 - Contour" d="M8.477-5A13.477,13.477,0,1,1-5,8.477,13.492,13.492,0,0,1,8.477-5Zm0,24.616A11.139,11.139,0,1,0-2.662,8.477,11.152,11.152,0,0,0,8.477,19.616Z" transform="translate(7.09 38.595)" fill="#018539"/>
    <path id="Ellipse_7" data-name="Ellipse 7" d="M4.611-6.5A11.111,11.111,0,1,1-6.5,4.611,11.124,11.124,0,0,1,4.611-6.5Zm0,19.183A8.072,8.072,0,1,0-3.461,4.611,8.081,8.081,0,0,0,4.611,12.683Z" transform="translate(10.956 42.461)" fill="#d0dded"/>
    <circle id="Ellipse_8" data-name="Ellipse 8" cx="12.308" cy="12.308" r="12.308" transform="translate(80.852 34.764)" fill="#fff"/>
    <path id="Ellipse_8_-_Contour" data-name="Ellipse 8 - Contour" d="M8.477-5A13.477,13.477,0,1,1-5,8.477,13.492,13.492,0,0,1,8.477-5Zm0,24.616A11.139,11.139,0,1,0-2.662,8.477,11.152,11.152,0,0,0,8.477,19.616Z" transform="translate(84.683 38.595)" fill="#018539"/>
    <path id="Ellipse_9" data-name="Ellipse 9" d="M4.611-6.5A11.111,11.111,0,1,1-6.5,4.611,11.124,11.124,0,0,1,4.611-6.5Zm0,19.183A8.072,8.072,0,1,0-3.461,4.611,8.081,8.081,0,0,0,4.611,12.683Z" transform="translate(88.548 42.461)" fill="#d0dded"/>
  </g>
</svg>
