<?xml version="1.0" encoding="utf-8"?>
<!-- Generator: Adobe Illustrator 23.0.5, SVG Export Plug-In . SVG Version: 6.00 Build 0)  -->
<svg version="1.1" id="Calque_1" xmlns="http://www.w3.org/2000/svg" xmlns:xlink="http://www.w3.org/1999/xlink" x="0px" y="0px"
	 viewBox="0 0 40 40" style="enable-background:new 0 0 40 40;" xml:space="preserve">
<style type="text/css">
	.st0{fill:#018539;stroke:#000000;stroke-width:0.5;stroke-miterlimit:10;}
	.st1{fill:#FFFFFF;}
	.st2{fill:#07873C;}
	.st3{fill:#03853A;}
	.st4{fill:#03863A;}
	.st5{fill:#06873D;}
	.st6{fill:#02853A;}
	.st7{fill:#04863B;}
	.st8{fill:#03863B;}
	.st9{fill:#0D0D0D;}
	.st10{fill:#0B0B0B;}
	.st11{fill:#0C0C0C;}
	.st12{fill:#101010;}
	.st13{fill:#FDFDFD;}
	.st14{fill:#FBFDFC;}
	.st15{fill:#F8FBF9;}
	.st16{fill:#FBFCFB;}
	.st17{fill:#FCFCFB;}
	.st18{fill:#FAFAFA;}
	.st19{fill:#FEFEFE;}
	.st20{fill:#1E8442;}
	.st21{fill:#0F8C42;}
	.st22{fill:#1C8541;}
	.st23{fill:#28934A;}
	.st24{fill:#3A9A53;}
	.st25{fill:#73B67C;}
	.st26{fill:#86BE8C;}
	.st27{fill:#5FAA6B;}
	.st28{fill:#4CA25E;}
	.st29{fill:#229249;}
	.st30{fill:#93C597;}
</style>
<title>marker</title>
<g>
	<path class="st0" d="M35.2,4.9H4.8c-0.9,0-1.7,0.7-1.7,1.7l0,0v22.1c0,0.9,0.7,1.6,1.7,1.6H15l3.9,6.7l3-6.7h13.3
		c0.9,0,1.7-0.7,1.7-1.6c0,0,0,0,0,0V6.5C36.8,5.6,36.1,4.9,35.2,4.9L35.2,4.9z"/>
	<path class="st1" d="M7.4,7.8h25.2c1.3,0,2.4,1.1,2.4,2.4v14.4c0,1.3-1.1,2.4-2.4,2.4H7.4c-1.3,0-2.4-1.1-2.4-2.4V10.1
		C5,8.8,6.1,7.8,7.4,7.8z"/>
	<path class="st2" d="M14.2,17c0.2,0,0.3,0,0.5,0c0.4,0,0.6,0.3,0.6,0.6c0,1,0,1.9,0,2.9c0,0.3-0.3,0.6-0.6,0.6c0,0-0.1,0-0.1,0
		c-2.3,0-4.5,0-6.8,0c-0.3,0-0.6-0.2-0.7-0.4c0-0.1,0-0.1,0-0.2c0-0.9,0-1.9,0-2.8c0-0.4,0.3-0.7,0.7-0.7c0.2,0,0.3,0,0.5,0
		c-0.6-0.9-0.8-1.8-0.6-2.9c0.2-1,0.8-1.8,1.7-2.4c1.4-0.8,3.2-0.6,4.3,0.4C14.8,13.3,15.3,15.4,14.2,17z M13.9,17.2
		c1.2-1.5,1-3.5-0.1-4.7c-1.2-1.2-2.9-1.5-4.3-0.6c-0.9,0.6-1.5,1.4-1.7,2.4c-0.2,1.1,0.1,2,0.8,2.9c-0.3,0-0.5,0-0.7,0
		c-0.3,0-0.6,0.2-0.6,0.6c0,0.9,0,1.9,0,2.8c0,0.4,0.2,0.6,0.6,0.6c2.3,0,4.5,0,6.8,0c0.4,0,0.6-0.2,0.6-0.6c0-0.9,0-1.9,0-2.8
		c0-0.4-0.2-0.6-0.6-0.6C14.4,17.2,14.1,17.2,13.9,17.2z"/>
	<path class="st3" d="M20.9,18.9c0,0.5,0,1,0,1.5c-0.1,0-0.2,0-0.3,0c0-0.7,0-1.4,0-2c0.2,0,0.4,0,0.6,0c0.1,0.4,0.2,0.9,0.3,1.3
		c0,0,0,0,0,0c0.1-0.4,0.2-0.8,0.3-1.3c0-0.1,0-0.1,0.1-0.1c0.2,0,0.3,0,0.5,0c0,0.7,0,1.4,0,2.1c-0.1,0-0.2,0-0.3,0
		c0-0.5,0-1,0-1.5c0,0,0,0,0,0c-0.1,0.2-0.1,0.5-0.2,0.7c-0.1,0.2-0.1,0.5-0.2,0.7c0,0.1,0,0.1-0.1,0.1c-0.1,0-0.2,0-0.3,0
		C21.1,19.9,21,19.4,20.9,18.9C20.9,18.9,20.9,18.9,20.9,18.9z"/>
	<path class="st4" d="M18.2,16.3c0.3,0.2,0.4,0.5,0.2,0.9c-0.1,0.1-0.2,0.2-0.4,0.2c-0.4,0-0.7,0-1.1,0c0-0.7,0-1.3,0-2
		c0.1,0,0.2,0,0.4,0c0.2,0,0.4,0,0.6,0c0.2,0,0.4,0.2,0.4,0.4C18.4,16,18.4,16.1,18.2,16.3C18.2,16.3,18.2,16.3,18.2,16.3z
		 M17.3,17.1c0.2,0,0.4,0,0.5,0c0.1,0,0.2-0.1,0.2-0.2c0-0.2-0.1-0.3-0.2-0.3c-0.2,0-0.4,0-0.6,0C17.3,16.7,17.3,16.9,17.3,17.1z
		 M17.3,15.7c0,0.2,0,0.3,0,0.4c0.2,0,0.4,0,0.5,0c0.1,0,0.2-0.1,0.2-0.2c0-0.1-0.1-0.2-0.2-0.2C17.7,15.7,17.5,15.7,17.3,15.7z"/>
	<path class="st4" d="M27.8,16.3c0.3,0.1,0.4,0.3,0.3,0.6c0,0.3-0.2,0.5-0.5,0.5c-0.3,0-0.7,0-1,0c0-0.7,0-1.4,0-2c0.3,0,0.7,0,1,0
		c0.2,0,0.4,0.1,0.4,0.4C28.1,15.9,28.1,16.1,27.8,16.3C27.9,16.3,27.9,16.3,27.8,16.3z M27,17.1c0.2,0,0.4,0,0.6,0
		c0.1,0,0.2-0.1,0.2-0.2c0-0.1-0.1-0.3-0.2-0.3c-0.2,0-0.4,0-0.6,0C27,16.7,27,16.9,27,17.1C27,17,27,17,27,17.1z M27,16.2
		c0.2,0,0.4,0,0.5,0c0.1,0,0.2-0.1,0.2-0.2c0-0.1-0.1-0.2-0.2-0.2c-0.2,0-0.3,0-0.5,0C27,15.9,27,16,27,16.2z"/>
	<path class="st5" d="M31.3,20.4c-0.1,0-0.2,0-0.3,0c0,0-0.1,0-0.1-0.1c-0.2-0.4-0.4-0.8-0.6-1.1c0,0,0-0.1-0.1-0.1
		c0,0.5,0,0.9,0,1.3c-0.1,0-0.2,0-0.4,0c0-0.7,0-1.4,0-2.1c0.1,0,0.2,0,0.3,0c0,0,0.1,0,0.1,0.1c0.2,0.4,0.4,0.8,0.6,1.2
		c0,0,0,0,0.1,0.1c0-0.5,0-0.9,0-1.3c0.1,0,0.2,0,0.4,0C31.3,19,31.3,19.7,31.3,20.4z"/>
	<path class="st6" d="M21.7,15.4c0.1,0,0.2,0,0.3,0c0,0.7,0,1.4,0,2.1c-0.1,0-0.2,0-0.3,0c0,0-0.1,0-0.1-0.1
		c-0.2-0.4-0.4-0.7-0.6-1.1c0,0,0-0.1-0.1-0.1c0,0.4,0,0.9,0,1.3c-0.1,0-0.2,0-0.3,0c0-0.7,0-1.4,0-2.1c0.1,0,0.2,0,0.3,0
		c0,0,0.1,0,0.1,0.1c0.2,0.4,0.5,0.8,0.7,1.3C21.7,16.3,21.7,15.8,21.7,15.4z"/>
	<path class="st6" d="M30.2,17.4c0-0.7,0-1.4,0-2c0.1,0,0.2,0,0.3,0c0,0,0.1,0,0.1,0.1c0.2,0.4,0.4,0.8,0.6,1.2c0,0,0,0.1,0.1,0.1
		c0-0.4,0-0.9,0-1.3c0.1,0,0.2,0,0.3,0c0,0.7,0,1.4,0,2c-0.1,0-0.2,0-0.3,0c0,0-0.1,0-0.1-0.1c-0.2-0.4-0.4-0.7-0.6-1.1
		c0,0,0-0.1-0.1-0.1c0,0.4,0,0.8,0,1.3C30.5,17.4,30.4,17.4,30.2,17.4z"/>
	<path class="st7" d="M25.4,19.5c0.3,0.2,0.4,0.6,0.6,0.9c-0.2,0-0.3,0-0.4,0c0,0,0,0-0.1-0.1c-0.1-0.2-0.2-0.4-0.4-0.6
		c-0.1-0.2-0.2-0.2-0.4-0.2c0,0.3,0,0.6,0,0.8c-0.1,0-0.2,0-0.4,0c0-0.7,0-1.4,0-2c0,0,0,0,0.1,0c0.3,0,0.6,0,1,0
		c0.3,0,0.4,0.2,0.5,0.4C25.9,19.1,25.7,19.4,25.4,19.5C25.4,19.5,25.4,19.5,25.4,19.5z M24.7,19.2c0.2,0,0.4,0,0.5,0
		c0.1,0,0.2-0.1,0.2-0.2c0-0.1-0.1-0.2-0.2-0.3c-0.2,0-0.4,0-0.5,0C24.7,18.9,24.7,19,24.7,19.2z"/>
	<path class="st8" d="M24,15.9c-0.1,0-0.2,0.1-0.4,0.1c-0.1-0.3-0.4-0.4-0.6-0.3c-0.2,0.1-0.3,0.2-0.3,0.4c0,0.2,0,0.4,0,0.6
		c0.1,0.4,0.5,0.5,0.9,0.2c0,0,0,0,0-0.1c0-0.1,0-0.1,0-0.2c-0.1,0-0.3,0-0.4,0c0-0.1,0-0.2,0-0.3c0.3,0,0.5,0,0.8,0
		c0,0,0,0.1,0,0.1c0,0.2,0,0.4,0,0.6c0,0.1,0,0.2-0.1,0.2c-0.3,0.2-0.6,0.2-0.9,0.2c-0.3,0-0.5-0.2-0.6-0.4c-0.2-0.4-0.2-0.8,0-1.2
		c0.2-0.5,1-0.6,1.4-0.2C23.9,15.7,24,15.8,24,15.9z"/>
	<path class="st7" d="M27.8,19.4c0,0.3-0.1,0.6-0.3,0.8c-0.2,0.3-0.5,0.3-0.9,0.3c-0.3-0.1-0.5-0.3-0.6-0.6c-0.1-0.3-0.1-0.6,0-0.9
		c0.1-0.4,0.4-0.6,0.9-0.6c0.4,0,0.7,0.3,0.8,0.7C27.8,19.1,27.8,19.2,27.8,19.4z M26.4,19.3C26.4,19.4,26.4,19.4,26.4,19.3
		c0,0.1,0,0.2,0,0.3c0.1,0.3,0.2,0.4,0.5,0.4c0.2,0,0.4-0.1,0.5-0.4c0.1-0.2,0.1-0.5,0-0.7c-0.1-0.2-0.2-0.3-0.4-0.3
		c-0.2,0-0.4,0.1-0.4,0.3C26.5,19.1,26.4,19.2,26.4,19.3z"/>
	<path class="st7" d="M32.4,16.2c0.2-0.2,0.4-0.5,0.6-0.7c0.1-0.1,0.2-0.2,0.4-0.2c0.1,0,0.2,0,0.3,0c-0.2,0.3-0.5,0.5-0.7,0.8
		c0.2,0.4,0.5,0.8,0.7,1.3c-0.2,0-0.3,0-0.5,0c0,0,0,0-0.1-0.1c-0.1-0.3-0.3-0.5-0.4-0.8c0,0,0,0,0-0.1c-0.1,0.1-0.2,0.2-0.3,0.3
		c0,0,0,0.1,0,0.1c0,0.2,0,0.4,0,0.5c-0.1,0-0.2,0-0.4,0c0-0.7,0-1.4,0-2c0.1,0,0.2,0,0.4,0C32.4,15.7,32.4,16,32.4,16.2
		C32.4,16.2,32.4,16.2,32.4,16.2z"/>
	<path class="st7" d="M23,19.1c0.3,0,0.6,0,0.9,0c0,0.1,0,0.2,0,0.4c-0.3,0-0.6,0-0.9,0c0,0.2,0,0.4,0,0.6c0.3,0,0.7,0,1,0
		c0,0.1,0,0.2,0,0.3c-0.5,0-0.9,0-1.4,0c0-0.7,0-1.4,0-2c0.5,0,0.9,0,1.4,0c0,0.1,0,0.2,0,0.3c-0.3,0-0.7,0-1,0
		C23,18.8,23,19,23,19.1z"/>
	<path class="st8" d="M24.3,17.4c0-0.7,0-1.4,0-2c0.5,0,0.9,0,1.4,0c0,0.1,0,0.2,0,0.3c-0.3,0-0.7,0-1,0c0,0.2,0,0.3,0,0.4
		c0.3,0,0.6,0,0.9,0c0,0.1,0,0.2,0,0.4c-0.3,0-0.6,0-0.9,0c0,0.2,0,0.4,0,0.5c0.3,0,0.7,0,1,0c0,0.1,0,0.2,0,0.3
		C25.2,17.4,24.8,17.4,24.3,17.4z"/>
	<path class="st3" d="M28.1,18.3c0.1,0,0.2,0,0.4,0c0,0,0,0.1,0,0.1c0,0.4,0,0.8,0,1.3c0,0.3,0.3,0.4,0.5,0.3
		c0.1-0.1,0.2-0.2,0.2-0.3c0-0.4,0-0.9,0-1.3c0,0,0-0.1,0-0.1c0.1,0,0.2,0,0.4,0c0,0,0,0,0,0c0,0.5,0,1,0,1.5c0,0.3-0.2,0.5-0.6,0.5
		c-0.1,0-0.3,0-0.4,0c-0.3-0.1-0.5-0.3-0.5-0.6C28.1,19.3,28.1,18.8,28.1,18.3C28.1,18.3,28.1,18.3,28.1,18.3z"/>
	<path class="st7" d="M19.3,15.4c0.1,0,0.2,0,0.3,0c0.1,0,0.1,0,0.1,0.1c0.2,0.5,0.4,1.1,0.6,1.6c0,0.1,0.1,0.3,0.1,0.4
		c-0.1,0-0.2,0-0.4,0c0,0-0.1,0-0.1-0.1c0-0.1-0.1-0.2-0.1-0.3c0,0-0.1-0.1-0.1-0.1c-0.2,0-0.4,0-0.6,0c-0.1,0-0.1,0-0.1,0.1
		c0,0.1-0.1,0.2-0.1,0.3c0,0,0,0.1-0.1,0.1c-0.1,0-0.2,0-0.3,0C18.8,16.7,19,16.1,19.3,15.4z M19.7,16.6c-0.1-0.2-0.2-0.5-0.2-0.7
		c-0.1,0.3-0.2,0.5-0.2,0.7C19.4,16.6,19.6,16.6,19.7,16.6z"/>
	<path class="st7" d="M18.6,20.4c0.2-0.6,0.4-1.1,0.6-1.7c0-0.1,0.1-0.2,0.1-0.3c0-0.1,0-0.1,0.1-0.1c0.1,0,0.2,0,0.3,0
		c0.2,0.7,0.5,1.4,0.7,2.1c-0.1,0-0.3,0-0.4,0c0-0.1-0.1-0.3-0.1-0.4c0,0-0.1-0.1-0.1-0.1c-0.2,0-0.4,0-0.6,0c0,0-0.1,0-0.1,0.1
		c0,0.1-0.1,0.2-0.1,0.3c0,0.1,0,0.1-0.1,0.1C18.8,20.4,18.7,20.4,18.6,20.4z M19.5,18.8c-0.1,0.3-0.2,0.5-0.2,0.7
		c0.2,0,0.3,0,0.5,0C19.6,19.3,19.6,19.1,19.5,18.8z"/>
	<path class="st7" d="M29.4,15.4c0.2,0.7,0.5,1.4,0.7,2.1c-0.1,0-0.3,0-0.4,0c0-0.1-0.1-0.3-0.1-0.4c0-0.1,0-0.1-0.1-0.1
		c-0.2,0-0.4,0-0.6,0c-0.1,0-0.1,0-0.1,0.1c0,0.1-0.1,0.2-0.1,0.3c0,0,0,0.1-0.1,0.1c-0.1,0-0.2,0-0.3,0c0-0.1,0.1-0.2,0.1-0.4
		c0.2-0.5,0.4-1.1,0.6-1.6c0-0.1,0.1-0.1,0.1-0.1C29.2,15.4,29.3,15.4,29.4,15.4z M29.4,16.6c-0.1-0.2-0.2-0.5-0.2-0.7
		c-0.1,0.3-0.2,0.5-0.2,0.7C29.1,16.6,29.2,16.6,29.4,16.6z"/>
	<path class="st7" d="M18.1,19.6c0.1,0,0.2,0.1,0.3,0.1c0,0.3-0.3,0.7-0.7,0.7c-0.4,0-0.8-0.2-0.9-0.7c-0.1-0.3-0.1-0.5,0-0.8
		c0.1-0.5,0.6-0.7,1-0.6c0.3,0.1,0.5,0.3,0.5,0.6c-0.1,0-0.2,0.1-0.4,0.1c0-0.2-0.1-0.3-0.3-0.3c-0.2,0-0.4,0.1-0.5,0.3
		c-0.1,0.2-0.1,0.5,0,0.7c0.1,0.2,0.2,0.3,0.4,0.3c0.2,0,0.3-0.1,0.4-0.3C18.1,19.7,18.1,19.7,18.1,19.6z"/>
	<path class="st9" d="M19.5,22.4C19.5,22.4,19.5,22.4,19.5,22.4c0.1,0,0.2-0.1,0.2-0.2c0.1-0.3,0.3-0.6,0.4-0.9c0,0-0.1,0-0.1,0
		c0,0,0.1,0,0.1,0c0.1,0,0.3,0,0.4,0c0.2,0,0.3,0.1,0.3,0.2c0,0.1,0,0.2-0.2,0.3c0,0-0.1,0-0.1,0.1c0,0,0.1,0.1,0.1,0.2
		c0.1,0.1,0,0.3-0.2,0.4c-0.1,0-0.2,0.1-0.3,0.1C19.9,22.4,19.7,22.4,19.5,22.4C19.5,22.4,19.5,22.4,19.5,22.4z M20.1,21.8
		c0,0-0.1,0-0.1,0.1c-0.1,0.1-0.1,0.3-0.2,0.4c0,0.1,0,0.1,0.1,0.1c0.1,0,0.2,0,0.3-0.1c0.1,0,0.2-0.2,0.1-0.3
		C20.3,21.9,20.3,21.8,20.1,21.8z M20,21.8c0.1,0,0.2,0,0.3,0c0.1,0,0.2-0.2,0.2-0.3c0-0.1-0.1-0.1-0.2-0.1c-0.1,0-0.1,0-0.1,0.1
		C20.2,21.5,20.1,21.6,20,21.8z"/>
	<path class="st10" d="M26.7,22.2c-0.1,0.1-0.1,0.2-0.2,0.2c-0.1,0-0.2,0-0.2-0.2c0,0-0.1,0.1-0.1,0.1c-0.1,0.1-0.2,0.1-0.2,0
		c-0.1,0-0.1-0.1-0.1-0.2c0-0.2,0.2-0.5,0.4-0.6c0.1,0,0.2,0,0.3,0c0.1-0.2,0.1-0.3,0.2-0.4c0,0-0.1,0-0.1,0c0,0,0,0,0,0
		c0.1,0,0.2,0,0.3,0c-0.1,0.3-0.2,0.5-0.3,0.8c0,0.1-0.1,0.2-0.1,0.3c0,0,0,0,0,0.1c0,0,0,0,0.1,0C26.6,22.3,26.7,22.2,26.7,22.2
		C26.7,22.2,26.7,22.2,26.7,22.2z M26,22.3C26.1,22.3,26.1,22.4,26,22.3c0.1,0.1,0.1,0.1,0.2,0c0.2-0.2,0.3-0.4,0.4-0.6
		c0,0,0-0.1,0-0.1c0,0-0.1,0-0.1,0C26.2,21.8,26.1,22,26,22.3z"/>
	<path class="st10" d="M23.1,22.3c-0.1,0-0.1,0.1-0.2,0.1c-0.1,0.1-0.2,0-0.2-0.2c0-0.2,0.1-0.4,0.3-0.5c0,0,0.1-0.1,0.2-0.1
		c0,0,0.1-0.1,0.2,0c0.1,0,0.2,0,0.3,0c-0.2,0.4-0.3,0.8-0.5,1.2c0,0,0.1,0,0.1,0c0,0,0,0,0,0c-0.1,0-0.3,0-0.5,0c0,0,0.1,0,0.1,0
		c0.1,0,0.2-0.1,0.2-0.2C23,22.5,23.1,22.4,23.1,22.3C23.1,22.3,23.1,22.3,23.1,22.3C23.1,22.3,23.1,22.3,23.1,22.3z M22.8,22.3
		C22.8,22.3,22.9,22.4,22.8,22.3c0.1,0.1,0.1,0.1,0.1,0.1c0.2-0.2,0.3-0.4,0.4-0.6c0,0,0-0.1,0-0.1c0,0-0.1,0-0.1,0
		C23,21.8,22.9,22,22.8,22.3z"/>
	<path class="st11" d="M21.7,22.4c0.1-0.2,0.2-0.5,0.3-0.7c0,0,0,0,0,0c-0.1,0-0.1,0.1-0.2,0.1c0-0.1,0.2-0.3,0.3-0.2
		c0,0,0,0.1,0,0.1c0,0,0,0,0.1,0c0,0,0,0,0.1,0c0.1-0.1,0.2-0.1,0.3,0c0.1,0.1,0,0.2,0,0.2c-0.1,0.1-0.1,0.2-0.2,0.4
		c0,0,0,0.1,0,0.1c0,0,0,0,0,0c0.1,0,0.1-0.1,0.2-0.1c0,0.1-0.2,0.2-0.3,0.2c-0.1,0-0.1,0-0.1-0.1c0-0.1,0-0.1,0.1-0.2
		c0.1-0.1,0.1-0.3,0.2-0.4c0,0,0-0.1,0-0.1c0,0-0.1,0-0.1,0c-0.2,0.1-0.2,0.3-0.3,0.4c0,0.1-0.1,0.1-0.1,0.2
		C21.8,22.4,21.8,22.4,21.7,22.4z"/>
	<path class="st11" d="M24.1,22.3c-0.1,0-0.1,0.1-0.2,0.1c-0.2,0-0.2-0.1-0.2-0.2c0.1-0.1,0.1-0.3,0.2-0.4c0,0,0-0.1,0-0.1
		c-0.1,0-0.1,0.1-0.2,0.1c0,0,0,0,0,0c0.1-0.1,0.1-0.2,0.3-0.2c0.1,0,0.1,0,0.1,0.1c0,0.1,0,0.1-0.1,0.2c-0.1,0.1-0.1,0.2-0.2,0.3
		c0,0,0,0.1,0,0.1c0,0,0.1,0,0.1,0c0.1-0.1,0.2-0.2,0.2-0.3c0.1-0.1,0.1-0.2,0.1-0.3c0-0.1,0.1-0.1,0.2-0.1
		c-0.1,0.2-0.2,0.5-0.3,0.7c0,0,0,0,0,0c0.1,0,0.1-0.1,0.2-0.1c0,0,0,0,0,0c0,0.1-0.2,0.2-0.3,0.2C24.1,22.4,24.1,22.4,24.1,22.3
		C24.1,22.3,24.1,22.3,24.1,22.3C24.1,22.3,24.1,22.3,24.1,22.3z"/>
	<path class="st11" d="M30.1,22.3c-0.1,0-0.1,0.1-0.2,0.1c-0.1,0-0.1,0-0.2,0c0,0,0-0.1,0-0.2c0-0.1,0-0.1,0.1-0.2
		c0-0.1,0.1-0.2,0.1-0.3c0,0,0-0.1,0-0.1c-0.1,0-0.1,0.1-0.2,0.1c0,0,0,0,0,0c0.1-0.1,0.1-0.1,0.2-0.2c0.1,0,0.1,0,0.1,0.1
		c0,0.1,0,0.1-0.1,0.2c-0.1,0.1-0.1,0.2-0.2,0.4c0,0,0,0.1,0,0.1c0,0,0.1,0,0.1,0c0.1-0.1,0.1-0.1,0.2-0.2c0.1-0.1,0.1-0.3,0.2-0.4
		c0-0.1,0.1-0.2,0.2-0.1c-0.1,0.2-0.2,0.5-0.3,0.7c0,0,0,0,0,0c0.1,0,0.1-0.1,0.2-0.1c0,0.1-0.2,0.2-0.2,0.2
		C30.1,22.4,30.1,22.4,30.1,22.3C30.1,22.3,30.1,22.3,30.1,22.3C30.1,22.3,30.1,22.3,30.1,22.3z"/>
	<path class="st10" d="M21.6,21.6c-0.1,0.3-0.2,0.5-0.3,0.7c0,0,0,0,0,0c0.1,0,0.1-0.1,0.2-0.1c0,0.1-0.2,0.2-0.3,0.2
		c-0.1,0-0.1-0.1-0.1-0.2c-0.1,0-0.1,0.1-0.1,0.1c-0.1,0-0.2,0-0.2,0c0,0-0.1-0.1-0.1-0.2c0-0.2,0.2-0.6,0.5-0.6c0.1,0,0.1,0,0.2,0
		c0,0,0,0,0,0C21.5,21.6,21.5,21.6,21.6,21.6z M20.8,22.3C20.9,22.3,20.9,22.4,20.8,22.3c0.1,0.1,0.1,0.1,0.2,0
		c0.2-0.2,0.3-0.3,0.4-0.6c0,0,0-0.1,0-0.1c0,0-0.1,0-0.1,0C21,21.8,20.9,22,20.8,22.3z"/>
	<path class="st9" d="M19.1,21.6c-0.1,0.3-0.2,0.5-0.3,0.7c0,0,0,0,0,0c0.1,0,0.1-0.1,0.2-0.1c0,0.1-0.2,0.3-0.3,0.2
		c0,0-0.1-0.1-0.1-0.1c0,0-0.1,0.1-0.1,0.1c-0.1,0-0.1,0.1-0.2,0c-0.1,0-0.1-0.1-0.1-0.2c0-0.2,0.2-0.6,0.5-0.6c0.1,0,0.1,0,0.2,0
		c0,0,0,0,0,0C18.9,21.6,19,21.6,19.1,21.6z M18.3,22.3C18.3,22.3,18.3,22.4,18.3,22.3c0.1,0.1,0.1,0.1,0.1,0.1
		c0.2-0.2,0.3-0.4,0.4-0.6c0,0,0-0.1,0-0.1c0,0-0.1,0-0.1,0C18.5,21.8,18.4,22,18.3,22.3z"/>
	<path class="st12" d="M17.3,22.4c0.2,0,0.3,0,0.4,0c0,0,0.1,0,0.1,0c0.1-0.1,0.1-0.1,0.1-0.2c0,0,0,0,0.1-0.1c0,0,0,0,0,0
		c0,0.1-0.1,0.2-0.1,0.4c0,0,0,0-0.1,0c-0.3,0-0.6,0-0.9,0c0,0,0,0,0,0c0,0,0,0,0,0c0.1,0,0.1-0.1,0.2-0.2c0.1-0.3,0.3-0.6,0.4-0.9
		c0,0-0.1,0-0.1,0c0,0,0.3-0.1,0.5,0c0,0,0,0,0,0c-0.1,0-0.2,0.1-0.2,0.2c-0.1,0.3-0.2,0.5-0.3,0.8C17.3,22.3,17.3,22.3,17.3,22.4z"
		/>
	<path class="st11" d="M28.7,22.2c0-0.2,0.2-0.5,0.5-0.6c0.2-0.1,0.4,0.1,0.3,0.3c0,0.3-0.2,0.4-0.4,0.5
		C28.9,22.5,28.7,22.4,28.7,22.2z M29.4,21.8C29.4,21.7,29.4,21.7,29.4,21.8c-0.1-0.1-0.1-0.1-0.2-0.1c-0.2,0.2-0.3,0.3-0.3,0.6
		c0,0,0,0.1,0,0.1c0,0,0.1,0,0.1,0C29.2,22.2,29.3,22,29.4,21.8z"/>
	<path class="st9" d="M27.5,22.2C27.5,22.2,27.5,22.2,27.5,22.2c-0.1,0.2-0.2,0.3-0.3,0.3c-0.1,0-0.2-0.1-0.2-0.2
		c0-0.3,0.3-0.6,0.6-0.6c0.1,0,0.1,0,0.2,0.1c0,0.1,0,0.1-0.1,0.2c-0.1,0.1-0.2,0.1-0.4,0.2c-0.1,0-0.2,0.2-0.2,0.3
		c0,0.1,0.1,0.1,0.1,0c0,0,0.1,0,0.1-0.1C27.4,22.3,27.4,22.2,27.5,22.2z M27.2,22c0.1,0,0.3-0.1,0.3-0.2c0,0,0-0.1,0-0.1
		c0,0-0.1,0-0.1,0C27.3,21.7,27.2,21.8,27.2,22z"/>
	<path class="st9" d="M25.2,22.2c-0.1,0.2-0.3,0.3-0.4,0.2c-0.1,0-0.1-0.1-0.1-0.2c0-0.1,0-0.1,0-0.2c0.1-0.2,0.2-0.4,0.4-0.4
		c0.1,0,0.1,0,0.2,0c0,0,0.1,0,0.1,0.1c0,0,0,0.1,0,0.1c-0.1,0.1-0.2,0.1-0.4,0.2c-0.1,0-0.2,0.2-0.2,0.3c0,0,0.1,0.1,0.1,0.1
		C25,22.3,25.1,22.3,25.2,22.2C25.2,22.2,25.2,22.2,25.2,22.2C25.2,22.2,25.2,22.2,25.2,22.2z M24.9,21.9c0.1,0,0.2-0.1,0.3-0.2
		c0,0,0-0.1,0-0.1c0,0-0.1,0-0.1,0C25,21.7,25,21.8,24.9,21.9C24.9,21.9,24.9,21.9,24.9,21.9C24.9,21.9,24.9,21.9,24.9,21.9
		C24.9,21.9,24.9,21.9,24.9,21.9z"/>
	<path class="st10" d="M28.6,21.6c0,0,0.1,0,0.1,0c0,0,0,0,0,0C28.7,21.6,28.7,21.7,28.6,21.6C28.6,21.7,28.6,21.7,28.6,21.6
		c-0.1,0.3-0.2,0.5-0.3,0.7c0,0,0,0,0,0.1c0.1-0.1,0.1-0.1,0.2-0.1c-0.1,0.1-0.2,0.2-0.3,0.2c-0.1,0-0.1,0-0.1-0.1
		c0-0.1,0-0.1,0-0.2c0.1-0.2,0.1-0.3,0.2-0.5c0,0-0.1,0-0.1,0c0,0,0.1-0.1,0.1,0c0.1,0,0.1,0,0.1-0.1c0-0.1,0.1-0.1,0.2-0.1
		C28.7,21.4,28.7,21.5,28.6,21.6z"/>
	<path class="st11" d="M31.1,21.6c0.1,0,0.1,0.1,0.2,0.1c0,0,0,0.1,0,0.1c0,0,0,0-0.1,0c0,0-0.1,0-0.1-0.1
		C31.1,21.7,31.1,21.6,31.1,21.6c-0.1,0.1-0.1,0.1-0.1,0.2c0,0.1,0,0.1,0.1,0.1c0,0.1,0.1,0.1,0.1,0.2c0.1,0.1,0,0.2-0.1,0.3
		c-0.1,0.1-0.3,0.1-0.4,0c0,0,0,0,0,0c0,0,0-0.1,0-0.1c0,0,0,0,0.1,0c0,0,0.1,0,0.1,0.1c0,0.1,0.1,0.1,0.2,0.1
		c0.1,0,0.1-0.1,0.1-0.2c0-0.1-0.1-0.1-0.1-0.2c-0.1-0.1-0.1-0.2,0-0.3C30.8,21.6,30.9,21.6,31.1,21.6z"/>
	<path class="st13" d="M13.9,17.2c0.3,0,0.5,0,0.7,0c0.4,0,0.6,0.2,0.6,0.6c0,0.9,0,1.9,0,2.8c0,0.4-0.2,0.6-0.6,0.6
		c-2.3,0-4.5,0-6.8,0c-0.4,0-0.6-0.2-0.6-0.6c0-0.9,0-1.9,0-2.8c0-0.3,0.2-0.6,0.6-0.6c0.2,0,0.5,0,0.7,0c-0.7-0.8-1-1.8-0.8-2.9
		c0.2-1.1,0.8-1.9,1.7-2.4c1.4-0.8,3.2-0.6,4.3,0.6C14.8,13.7,15.1,15.7,13.9,17.2z M13.8,17.7C13.8,17.7,13.8,17.7,13.8,17.7
		c-0.2-0.1-0.3-0.2-0.4-0.2c-0.5-0.2-1.1-0.3-1.6-0.4c-0.1,0-0.1,0-0.1-0.1c0-0.1,0-0.2-0.1-0.2c-0.3-0.6-0.3-1.3-0.3-2
		c0-0.3,0.1-0.5,0.4-0.6c0,0,0.1,0,0.1,0c0.1,0,0.1,0,0.2,0c0.1,0,0.1,0,0.1,0.1c0.1,0.2,0.3,0.2,0.5,0.1c0.1-0.1,0.2-0.1,0.3-0.1
		c0.2,0,0.3,0,0.3-0.2c0,0,0,0,0.1-0.1c0.1-0.1,0.2-0.1,0.2-0.3c0-0.1-0.1-0.2-0.2-0.2c0,0-0.1,0-0.1,0c0-0.3,0-0.3-0.4-0.3
		c0-0.1,0-0.2,0-0.2c0,0-0.1,0-0.2-0.1c0-0.1-0.1-0.1-0.2-0.2c-0.1,0-0.2,0-0.2,0.1c0,0,0,0,0,0c-0.1,0-0.1,0-0.2,0.1
		c0,0-0.1-0.1-0.1-0.1c-0.1,0-0.1,0-0.2-0.1c0-0.3-0.2-0.4-0.4-0.5c-0.1,0-0.2,0-0.3,0.2c-0.1,0-0.2,0-0.2,0c0,0,0,0.1-0.1,0.2
		c-0.1,0-0.1,0-0.1,0.2c-0.2,0-0.3,0.1-0.3,0.3c-0.2,0-0.2,0-0.2,0.2c-0.1,0.1-0.1,0.1-0.2,0.2c0,0.1,0,0.2,0,0.2
		c0,0.1-0.1,0.1-0.1,0.2c-0.1,0-0.1,0-0.1,0.1c-0.1,0-0.1,0-0.2,0c0,0-0.1,0-0.1,0.1c0,0.1-0.1,0.1-0.2,0.1c0,0-0.1,0.1-0.1,0.1
		c0,0,0,0.1,0.1,0.1c0,0,0.1,0,0.1,0c0,0,0.1,0,0.1,0c0.1,0.1,0.3,0.1,0.4,0c0,0,0,0,0,0c0.1,0,0.1,0.1,0.2,0.1c0.1,0,0.1,0,0.1,0.1
		c0.1,0,0.1,0.1,0.2,0.1c0.2,0,0.3-0.1,0.2-0.3c0,0,0,0,0,0c0.1,0,0.2,0,0.3-0.1c0.1,0.1,0.1,0.1,0.1,0.2c0,0.1,0.1,0.2,0.1,0.4
		c0,0.4,0,0.8-0.1,1.2c-0.1,0.4-0.2,0.8-0.4,1.1c0,0.1-0.1,0.1-0.1,0.1c-0.4,0-0.8,0.1-1.2,0.3c-0.4,0.1-0.8,0.3-1.1,0.6
		c-0.5,0.5-0.5,1.1,0,1.6c0.2,0.2,0.5,0.4,0.7,0.5c0.7,0.3,1.5,0.5,2.2,0.5c0.8,0,1.6-0.1,2.4-0.4c0.4-0.2,0.8-0.4,1.1-0.7
		c0.4-0.4,0.4-0.9,0-1.3C14.3,18,14.1,17.9,13.8,17.7z M13.3,12.5c-0.1,0-0.1-0.1-0.2-0.2c0,0.1-0.1,0.1-0.2,0.1
		c0.1,0.1,0,0.2,0,0.2c0.1,0.1,0.1,0.1,0.1,0.1c0.1,0,0.1,0,0.2-0.1C13.2,12.7,13.2,12.6,13.3,12.5z M9.3,12.4c0,0-0.1,0.1-0.1,0.1
		c0,0.1,0,0.1,0,0.2c0.1,0,0.1,0,0.2,0.1c0,0,0.1-0.1,0.1-0.1c0-0.1,0-0.1,0-0.2C9.4,12.5,9.3,12.4,9.3,12.4z M13.6,13.6
		c0,0.1,0.1,0.1,0.1,0.2c0.1,0,0.1,0,0.2,0c0-0.1,0.1-0.1,0.1-0.2c0,0-0.1-0.1-0.1-0.2c-0.1,0-0.1,0-0.2,0
		C13.7,13.5,13.7,13.6,13.6,13.6z M11.8,11.9c0,0.1,0,0.1,0,0.2c0,0,0.1,0.1,0.2,0.1c0-0.1,0.1-0.1,0.2-0.1c0-0.1,0-0.1,0-0.2
		c-0.1,0-0.1-0.1-0.2-0.1C11.9,11.8,11.9,11.8,11.8,11.9z M10.7,11.9c-0.1,0-0.1,0-0.2-0.1c-0.1,0-0.1,0.1-0.2,0.1
		c0,0.1,0,0.1,0,0.2c0.1,0,0.1,0.1,0.2,0.1c0,0,0.1-0.1,0.2-0.1C10.7,12,10.7,11.9,10.7,11.9z M8.7,13.6c-0.1,0-0.1-0.1-0.1-0.1
		c-0.1,0-0.1,0-0.2,0c0,0.1-0.1,0.1-0.1,0.2c0.1,0,0.1,0.1,0.1,0.2c0.1-0.1,0.1,0,0.2,0C8.7,13.8,8.7,13.7,8.7,13.6z"/>
	<path class="st14" d="M17.3,17.1c0-0.2,0-0.4,0-0.5c0.2,0,0.4,0,0.6,0c0.1,0,0.2,0.1,0.2,0.3c0,0.1-0.1,0.2-0.2,0.2
		C17.7,17.1,17.5,17.1,17.3,17.1z"/>
	<path class="st15" d="M17.3,15.7c0.2,0,0.3,0,0.5,0c0.1,0,0.2,0.1,0.2,0.2c0,0.1-0.1,0.2-0.2,0.2c-0.2,0-0.4,0-0.5,0
		C17.3,16,17.3,15.9,17.3,15.7z"/>
	<path class="st14" d="M27,17.1C27,17,27,17,27,17.1c0-0.2,0-0.4,0-0.5c0.2,0,0.4,0,0.6,0c0.1,0,0.2,0.1,0.2,0.3
		c0,0.1-0.1,0.2-0.2,0.2C27.4,17.1,27.2,17.1,27,17.1z"/>
	<path class="st15" d="M27,16.2c0-0.1,0-0.3,0-0.5c0.2,0,0.3,0,0.5,0c0.1,0,0.2,0.1,0.2,0.2c0,0.1-0.1,0.2-0.2,0.2
		C27.4,16.2,27.2,16.2,27,16.2z"/>
	<path class="st16" d="M24.7,19.2c0-0.2,0-0.3,0-0.5c0.2,0,0.4,0,0.5,0c0.1,0,0.2,0.1,0.2,0.3c0,0.1-0.1,0.2-0.2,0.2
		C25,19.2,24.9,19.2,24.7,19.2z"/>
	<path class="st14" d="M26.4,19.3c0-0.1,0.1-0.3,0.1-0.4c0.1-0.2,0.2-0.3,0.4-0.3c0.2,0,0.4,0.1,0.4,0.3c0.1,0.2,0.1,0.5,0,0.7
		c-0.1,0.2-0.3,0.4-0.5,0.4c-0.2,0-0.4-0.2-0.5-0.4C26.4,19.5,26.4,19.4,26.4,19.3C26.4,19.4,26.4,19.4,26.4,19.3z"/>
	<path class="st17" d="M19.7,16.6c-0.2,0-0.3,0-0.5,0c0.1-0.2,0.2-0.5,0.2-0.7C19.6,16.1,19.6,16.4,19.7,16.6z"/>
	<path class="st16" d="M19.5,18.8c0.1,0.3,0.2,0.5,0.2,0.7c-0.2,0-0.3,0-0.5,0C19.3,19.3,19.4,19.1,19.5,18.8z"/>
	<path class="st16" d="M29.4,16.6c-0.2,0-0.3,0-0.5,0c0.1-0.2,0.2-0.5,0.2-0.7C29.2,16.1,29.3,16.4,29.4,16.6z"/>
	<path class="st18" d="M20.1,21.8c0.1,0,0.2,0.1,0.2,0.2c0,0.1,0,0.3-0.1,0.3c-0.1,0-0.2,0-0.3,0.1c-0.1,0-0.1,0-0.1-0.1
		c0.1-0.1,0.1-0.3,0.2-0.4C20,21.8,20.1,21.8,20.1,21.8z"/>
	<path class="st18" d="M20,21.8c0.1-0.1,0.1-0.3,0.2-0.4c0-0.1,0.1-0.1,0.1-0.1c0.1,0,0.2,0,0.2,0.1c0,0.1,0,0.3-0.2,0.3
		C20.3,21.8,20.2,21.8,20,21.8z"/>
	<path class="st18" d="M26,22.3c0.1-0.3,0.2-0.5,0.4-0.6c0,0,0.1,0,0.1,0c0,0,0,0.1,0,0.1c-0.1,0.2-0.2,0.4-0.4,0.6
		C26.2,22.4,26.1,22.4,26,22.3C26.1,22.4,26.1,22.3,26,22.3z"/>
	<path class="st18" d="M22.8,22.3c0.1-0.3,0.2-0.5,0.4-0.6c0,0,0.1,0,0.1,0c0,0,0,0.1,0,0.1c-0.1,0.2-0.2,0.4-0.4,0.6
		C22.9,22.4,22.9,22.4,22.8,22.3C22.9,22.4,22.8,22.3,22.8,22.3z"/>
	<path class="st19" d="M23.1,22.3C23.1,22.3,23.1,22.3,23.1,22.3C23.1,22.3,23.1,22.3,23.1,22.3C23.1,22.3,23.1,22.3,23.1,22.3z"/>
	<path class="st19" d="M24.1,22.3C24.1,22.3,24.1,22.3,24.1,22.3C24.1,22.3,24.1,22.3,24.1,22.3C24.1,22.3,24.1,22.3,24.1,22.3z"/>
	<path class="st19" d="M30.1,22.3C30.1,22.3,30.1,22.3,30.1,22.3C30.1,22.3,30.1,22.3,30.1,22.3C30.1,22.3,30.1,22.3,30.1,22.3z"/>
	<path class="st18" d="M20.8,22.3c0.1-0.3,0.2-0.5,0.4-0.6c0,0,0.1,0,0.1,0c0,0,0,0.1,0,0.1c-0.1,0.2-0.2,0.4-0.4,0.6
		C21,22.4,20.9,22.4,20.8,22.3C20.9,22.4,20.9,22.3,20.8,22.3z"/>
	<path class="st18" d="M18.3,22.3c0.1-0.3,0.2-0.5,0.4-0.6c0,0,0.1,0,0.1,0c0,0,0,0.1,0,0.1c-0.1,0.2-0.2,0.4-0.4,0.6
		C18.4,22.4,18.4,22.4,18.3,22.3C18.3,22.4,18.3,22.3,18.3,22.3z"/>
	<path class="st18" d="M29.4,21.8c-0.1,0.2-0.2,0.5-0.4,0.6c0,0-0.1,0-0.1,0c0,0,0-0.1,0-0.1c0-0.2,0.1-0.4,0.3-0.6
		C29.2,21.7,29.3,21.7,29.4,21.8C29.4,21.7,29.4,21.7,29.4,21.8z"/>
	<path class="st15" d="M27.2,22c0.1-0.1,0.1-0.2,0.2-0.3c0,0,0.1,0,0.1,0c0,0,0,0.1,0,0.1C27.4,21.9,27.3,21.9,27.2,22z"/>
	<path class="st15" d="M24.9,21.9c0-0.1,0.1-0.2,0.2-0.3c0,0,0.1,0,0.1,0c0,0,0,0.1,0,0.1C25.2,21.9,25.1,21.9,24.9,21.9L24.9,21.9z
		"/>
	<polygon class="st15" points="24.9,21.9 24.9,22 24.9,21.9 24.9,21.9 	"/>
	<path class="st4" d="M10.4,14.3c0,0.2-0.1,0.3-0.2,0.3c-0.1,0-0.1,0-0.2-0.1c0,0-0.1-0.1-0.1-0.1c-0.1,0-0.1,0-0.2-0.1c0,0,0,0,0,0
		c-0.1,0.2-0.3,0.2-0.4,0c0,0,0,0-0.1,0c0,0-0.1,0-0.1,0c0,0-0.1-0.1-0.1-0.1c0,0,0.1-0.1,0.1-0.1c0.1,0,0.1,0,0.2-0.1
		c0,0,0.1-0.1,0.1-0.1c0.1,0,0.1,0,0.2,0c0-0.1,0.1-0.1,0.1-0.1c0-0.1,0.1-0.1,0.1-0.2c0-0.1-0.1-0.1,0-0.2c0-0.1,0.1-0.1,0.2-0.2
		c0-0.2,0-0.2,0.2-0.2c0-0.2,0.1-0.3,0.3-0.3c0-0.1,0-0.2,0.1-0.2c0-0.1,0-0.2,0.1-0.2c0.1,0,0.2,0,0.2,0c0-0.1,0.1-0.2,0.3-0.2
		c0.3,0,0.4,0.2,0.4,0.5c0.1,0,0.1,0,0.2,0.1c0.1,0,0.1,0.1,0.1,0.1c0.1,0,0.1,0,0.2-0.1c0,0,0,0,0,0c0-0.1,0.1-0.1,0.2-0.1
		c0.1,0,0.2,0.1,0.2,0.2c0.1,0,0.2,0,0.2,0.1c0,0,0,0.1,0,0.2c0.4,0,0.4,0,0.4,0.3c0,0,0,0,0.1,0c0.1,0,0.2,0.1,0.2,0.2
		c0,0.1-0.1,0.2-0.2,0.3c0,0,0,0-0.1,0.1c-0.1,0.2-0.1,0.2-0.3,0.2c-0.1,0-0.2,0-0.3,0.1c-0.2,0.1-0.3,0.1-0.5-0.1
		c0,0-0.1-0.1-0.1-0.1c-0.1,0-0.1,0-0.2,0c0,0-0.1,0-0.1,0c-0.2,0.1-0.4,0.3-0.4,0.6c0,0.7,0,1.4,0.3,2c0,0.1,0.1,0.2,0.1,0.2
		c0,0.1,0,0.1,0.1,0.1c0.6,0,1.1,0.2,1.6,0.4c0.1,0,0.2,0.1,0.4,0.2c-0.2,0-0.3,0-0.5,0c-0.1,0-0.2-0.1-0.3,0c-0.1,0-0.3,0-0.4,0
		c-0.1,0-0.1-0.1-0.2-0.1c-0.1,0-0.3,0.1-0.4,0.1c0,0-0.1,0-0.1-0.1c-0.1,0-0.1,0-0.2,0c-0.2,0-0.4,0-0.6,0c0,0-0.1,0-0.1,0
		c0,0,0,0,0.1-0.1c-0.1,0-0.2,0-0.3,0c-0.2,0-0.3,0-0.5,0c-0.1,0-0.2,0-0.3,0.1c-0.1,0-0.2,0-0.2,0c0,0-0.1,0-0.1,0c0,0,0,0,0,0
		c0.1,0,0.1,0,0.2,0c0,0,0,0.1-0.1,0.1c0,0,0,0,0,0c0,0,0,0,0-0.1c-0.1,0-0.2,0-0.3,0c0,0,0.1,0,0.1,0c-0.1,0-0.2,0-0.3,0
		c-0.2,0-0.4,0-0.5,0.1c0,0,0,0.1-0.1,0.1c0,0,0.1,0,0.1,0c0.1,0,0.1,0,0.2,0c0,0,0.1,0,0.1,0c0,0.1,0.1,0.2,0,0.3c0,0-0.1,0-0.1,0
		c0,0.1,0,0.1,0,0.2c0,0-0.1,0.1-0.1,0.1c-0.1,0.2-0.2,0.4-0.1,0.6c0,0.2,0.1,0.3,0.3,0.4c0,0.1,0,0.1,0,0.2c0,0,0,0,0,0
		c0.1,0,0.2,0,0.3,0c0,0,0.1,0.1,0.1,0.1c0.2,0.1,0.4,0.2,0.6,0.3c0,0.1,0,0.1,0,0.2c0,0.1,0.1,0.2,0.2,0.1
		c-0.1-0.1-0.1-0.1-0.1-0.2c0.5,0.1,1,0.2,1.6,0.1c0.4,0,0.8-0.1,1.2-0.2c0.1,0,0.2-0.1,0.3-0.2c0.1,0,0.1,0,0.2,0
		c0.1,0,0.2,0,0.2,0.1c0,0.1,0.1,0.1,0.1,0c0.2-0.1,0.2-0.3,0.2-0.4c0-0.1-0.1-0.1-0.1-0.2c0,0,0,0,0,0c0.1,0,0.1,0,0.2,0
		c0,0,0-0.1,0-0.1c0,0,0.1,0,0.1,0c0-0.1,0-0.1,0-0.1c0-0.1,0.1-0.3,0-0.4c-0.1-0.2-0.1-0.4-0.3-0.5c0,0,0-0.1-0.1-0.1c0,0,0,0,0,0
		c0,0-0.1,0-0.1,0c0,0,0-0.1,0-0.1c0,0,0.1,0,0.1,0c0,0,0,0,0,0c0,0-0.1-0.1-0.1-0.1c0,0,0-0.1-0.1-0.1c0,0,0.1,0,0.1,0
		c0,0,0.1,0,0.1,0c0.1,0,0.1,0,0.1,0c0,0.1,0.1,0.1,0.1,0.1c0,0,0,0,0,0c0-0.1,0-0.1-0.1-0.2c0,0,0.2,0,0.1-0.1c0,0,0.1,0,0.1,0
		c0.3,0.1,0.5,0.3,0.7,0.6c0.3,0.4,0.3,0.9,0,1.3c-0.3,0.3-0.7,0.6-1.1,0.7c-0.8,0.3-1.6,0.4-2.4,0.4c-0.8,0-1.5-0.2-2.2-0.5
		c-0.3-0.1-0.5-0.3-0.7-0.5c-0.5-0.5-0.5-1.1,0-1.6c0.3-0.3,0.7-0.5,1.1-0.6c0.4-0.1,0.8-0.2,1.2-0.3c0.1,0,0.1,0,0.1-0.1
		c0.2-0.4,0.3-0.7,0.4-1.1c0.1-0.4,0.1-0.8,0.1-1.2c0-0.1,0-0.2-0.1-0.4c0-0.1-0.1-0.1-0.1-0.2C10.7,14.3,10.6,14.3,10.4,14.3
		C10.4,14.3,10.4,14.3,10.4,14.3C10.4,14.3,10.4,14.3,10.4,14.3z M11.3,14.2c0.1-0.1,0.2-0.1,0.3-0.2c0,0,0-0.1-0.1-0.1
		c-0.1,0-0.1,0.1-0.2,0.1C11.3,14.1,11.3,14.1,11.3,14.2z M11,14.2c0-0.3,0-0.3-0.1-0.3c0,0-0.1,0.1-0.1,0.1
		C10.9,14.1,11,14.2,11,14.2z"/>
	<path class="st20" d="M13.8,17.7c0,0-0.1,0-0.1,0c0,0.1-0.1,0.1-0.1,0.1c0,0.1,0,0.1,0.1,0.2c0,0,0,0,0,0c0,0-0.1-0.1-0.1-0.1
		c0,0-0.1-0.1-0.1,0c0,0-0.1,0-0.1,0c0,0-0.1,0-0.1,0c0,0,0,0.1,0.1,0.1c0,0,0.1,0.1,0.1,0.1c0,0,0,0,0,0c0,0-0.1,0-0.1,0
		c0,0,0,0.1,0,0.1c-0.1,0-0.3,0-0.4,0c0,0.4,0,0.7,0,1.1c0,0-0.1-0.1-0.1-0.1c0,0,0,0,0,0c0,0,0,0,0.1-0.1c0,0-0.1-0.1-0.1-0.1
		c0,0,0-0.1,0-0.1c0-0.1-0.1-0.1-0.1-0.2c0,0,0,0-0.1,0c0,0.1-0.1,0.1-0.1,0.2c-0.1,0-0.1,0-0.1-0.1c0-0.1-0.1-0.2-0.2-0.2
		c0-0.1,0.1-0.1,0.2-0.1c0.1,0,0.1,0.1,0.2,0.2c0.1,0,0.2-0.1,0.3-0.1c-0.1-0.2-0.1-0.3-0.3-0.3c-0.3-0.1-0.4,0-0.6,0.2
		c-0.1,0.2-0.1,0.4-0.1,0.6c0,0,0,0.1,0,0.1c-0.1,0.1-0.1,0.1-0.1,0.2c0,0.1,0,0.2-0.1,0.2c0-0.3,0-0.6,0-0.9c0,0,0-0.1,0-0.1
		c0-0.1,0-0.2,0-0.3c0,0,0-0.1,0-0.1c0,0,0,0-0.1,0c0,0,0,0,0,0c0-0.1-0.1,0-0.1,0c0,0-0.1,0-0.1,0c0,0,0,0.1,0,0.1c0,0,0,0,0-0.1
		c0,0,0,0,0,0c0,0,0,0,0,0.1c-0.1,0-0.1-0.1-0.1,0c0,0,0-0.1,0-0.1c0,0-0.1,0-0.1,0c0,0-0.1,0-0.1,0c0,0,0-0.1,0-0.1c0,0,0,0,0-0.1
		c0,0-0.1,0-0.1,0c0,0,0.1-0.1,0.1-0.1c0.1,0,0.1,0.1,0.2,0.1c0,0,0.1-0.1,0.1-0.1c0,0-0.1-0.1-0.1-0.1c0,0,0,0,0.1-0.1
		c0,0,0,0,0.1,0c0.1-0.1,0.2-0.1,0.3-0.1c0.2,0.1,0.3,0,0.5,0c0,0,0,0,0,0c0.1,0,0.3-0.1,0.4-0.1c0.1,0,0.1,0.1,0.2,0.1
		c0.1,0,0.3,0.1,0.4,0c0.1,0,0.2,0,0.3,0C13.4,17.7,13.6,17.7,13.8,17.7C13.8,17.7,13.8,17.7,13.8,17.7z M11.9,18.2
		C11.8,18.2,11.8,18.2,11.9,18.2c0,0.1,0,0.1,0,0.2c0,0,0,0,0.1,0C11.9,18.3,11.9,18.2,11.9,18.2z M11.3,17.8
		C11.3,17.8,11.3,17.8,11.3,17.8c0,0.1-0.1,0.1-0.1,0.1c0,0,0,0,0,0C11.3,18,11.3,17.9,11.3,17.8C11.3,17.9,11.3,17.8,11.3,17.8z"/>
	<path class="st21" d="M13.3,12.5c-0.1,0.1-0.1,0.1-0.1,0.2c-0.1,0-0.1,0-0.2,0.1c0,0-0.1-0.1-0.1-0.1c0,0,0.1-0.1,0-0.2
		c0.1,0,0.2,0,0.2-0.1C13.1,12.5,13.2,12.6,13.3,12.5z"/>
	<path class="st2" d="M9.3,12.4c0.1,0,0.1,0,0.2,0.1c0,0.1,0,0.1,0,0.2c0,0-0.1,0.1-0.1,0.1c0,0-0.1,0-0.2-0.1c0-0.1,0-0.1,0-0.2
		C9.2,12.5,9.2,12.5,9.3,12.4z"/>
	<path class="st2" d="M13.6,13.6c0-0.1,0.1-0.1,0.1-0.2c0.1,0,0.1,0,0.2,0c0,0.1,0.1,0.1,0.1,0.2c0,0.1-0.1,0.1-0.1,0.2
		c-0.1,0-0.1,0-0.2,0C13.7,13.7,13.7,13.7,13.6,13.6z"/>
	<path class="st2" d="M11.8,11.9c0.1,0,0.1-0.1,0.2-0.1c0,0,0.1,0.1,0.2,0.1c0,0,0,0.1,0,0.2c-0.1,0-0.1,0-0.2,0.1
		c-0.1,0-0.1-0.1-0.2-0.1C11.8,12,11.8,11.9,11.8,11.9z"/>
	<path class="st2" d="M10.7,11.9c0,0.1,0,0.2,0,0.2c0,0-0.1,0.1-0.2,0.1c0,0-0.1-0.1-0.2-0.1c0-0.1,0-0.1,0-0.2c0,0,0.1-0.1,0.2-0.1
		C10.6,11.8,10.6,11.9,10.7,11.9z"/>
	<path class="st2" d="M8.7,13.6c0,0.1-0.1,0.1-0.1,0.2c0,0-0.1-0.1-0.2,0c0-0.1,0-0.2-0.1-0.2c0-0.1,0.1-0.1,0.1-0.2
		c0.1,0,0.1,0,0.2,0C8.7,13.5,8.7,13.6,8.7,13.6z"/>
	<path class="st22" d="M8.8,18.2c0.1-0.1,0.1-0.2,0-0.3c0,0,0,0-0.1,0c-0.1,0-0.1,0-0.2,0c0,0-0.1,0-0.1,0c0,0,0-0.1,0.1-0.1
		c0.2-0.1,0.3-0.2,0.5-0.1c0.1,0,0.2,0,0.3,0c0,0,0,0-0.1,0c0.1,0,0.2,0,0.3,0c0,0,0,0,0,0.1c0,0,0,0,0,0c0,0,0-0.1,0.1-0.1
		c-0.1,0-0.1,0-0.2,0c0,0,0,0,0,0c0,0,0.1,0,0.1,0c0.1,0,0.2,0,0.2,0c0.1,0,0.2-0.1,0.3-0.1c0.2,0,0.3,0,0.5,0c0.1,0,0.2,0,0.3,0
		c0,0,0,0-0.1,0.1c0,0,0,0-0.1,0c0,0.1-0.1,0.1-0.2,0.1c0,0,0,0,0,0c0,0-0.1,0-0.1,0.1c-0.1,0-0.1,0.1-0.2,0c-0.1,0-0.1,0-0.2,0
		c-0.1,0,0,0.1,0,0.1c0,0,0,0,0,0c0,0,0,0.1,0,0.1c0,0-0.1,0-0.1,0c0,0,0,0-0.1,0c0.1,0,0,0.1,0,0.1c0,0,0,0-0.1,0c0,0-0.1,0-0.1,0
		c-0.1,0.1-0.2,0.2-0.3,0.4c-0.1-0.3-0.2-0.4-0.5-0.4C8.9,18.2,8.9,18.2,8.8,18.2z"/>
	<path class="st13" d="M8.8,18.2c0.1,0,0.1,0,0.2,0c0.3,0,0.4,0.1,0.5,0.4c0,0.1,0,0.2-0.1,0.3c-0.1,0.1,0,0.1,0,0.1
		c0,0,0.1,0,0.1,0c0,0.1,0,0.2,0,0.3c0,0.1-0.1,0.1-0.1,0.2c-0.1,0.1-0.2,0.1-0.3,0.1c-0.1,0-0.2,0-0.4,0c0,0,0,0,0,0
		c0-0.5,0-1,0-1.5C8.8,18.2,8.8,18.2,8.8,18.2z M9,19.1c0,0.1,0,0.3,0,0.4c0.1,0,0.2-0.1,0.2-0.2C9.2,19.2,9.1,19.1,9,19.1z M9,18.5
		c0,0.1,0,0.2,0,0.4c0.1,0,0.2-0.1,0.2-0.2C9.2,18.5,9.2,18.5,9,18.5z"/>
	<path class="st16" d="M13,19.3c0-0.4,0-0.7,0-1.1c0.1,0,0.3,0,0.4,0c0,0,0.1,0,0.1,0c0,0,0,0,0,0c0,0,0.1,0,0.1,0.1
		c0,0.1,0,0.2,0,0.2c-0.1,0-0.2,0-0.3,0c0,0.1,0,0.2,0,0.3c0.1,0,0.2,0,0.2,0c0,0.1,0,0.2,0,0.3c-0.1,0-0.2,0-0.2,0
		c0,0.1,0,0.2,0,0.3c0.1,0,0.2,0,0.3,0c0,0.1,0,0.2,0,0.3c-0.2,0-0.4,0-0.6,0c0,0,0,0,0,0c0-0.1,0-0.1,0-0.2
		C13,19.4,13,19.3,13,19.3z"/>
	<path class="st21" d="M13,19.9c-0.1,0.1-0.2,0.1-0.3,0.2c-0.4,0.1-0.8,0.2-1.2,0.2c-0.5,0-1.1,0-1.6-0.1c0,0,0-0.1,0-0.1
		c0.3,0.1,0.6,0.1,0.9,0.2c0.2,0,0.4,0,0.6,0c0.2,0,0.5,0,0.7-0.1C12.4,20,12.7,19.9,13,19.9C13,19.9,13,19.9,13,19.9z"/>
	<path class="st20" d="M9.9,20c0,0,0,0.1,0,0.1c0,0.1,0,0.2,0.1,0.2c-0.1,0-0.2,0-0.2-0.1c0-0.1,0-0.1,0-0.2c0,0,0-0.1,0-0.1
		c0-0.1,0-0.2,0-0.2c0.1,0,0.1,0,0.2,0c0-0.1,0-0.2,0.1-0.2c0.1,0,0.2,0,0.3,0c0,0.1,0,0.1,0,0.2c-0.1,0-0.2,0.1-0.1,0.2
		c0,0,0,0.1-0.1,0.1C10,19.9,10,20,9.9,20z"/>
	<path class="st22" d="M13,19.9C13,19.9,13,19.9,13,19.9c0-0.1,0-0.2,0-0.2c0.2,0,0.3,0,0.5,0c0,0,0.1,0,0.1,0c0-0.1,0-0.2,0-0.3
		c0.1-0.1,0.1-0.1,0-0.2c0,0,0,0-0.1-0.1c0,0,0,0,0,0c0.1,0,0.1,0,0.2,0c0,0,0.1,0.1,0.1,0.1c0,0,0,0,0,0.1c-0.1,0-0.1,0-0.2,0
		c0,0,0,0,0,0c0,0.1,0,0.2,0.1,0.2c0.1,0.2,0,0.4-0.2,0.4c-0.1,0-0.1,0-0.1,0c-0.1-0.1-0.1-0.1-0.2-0.1C13.1,19.9,13.1,19.9,13,19.9
		z"/>
	<path class="st21" d="M13.8,19.3c0,0-0.1-0.1-0.1-0.1c0-0.1,0-0.2,0-0.4c0-0.1,0-0.3-0.1-0.3c0-0.1,0-0.2,0-0.2
		c0.2,0.1,0.3,0.3,0.3,0.5c0,0.1,0,0.3,0,0.4C13.9,19.2,13.9,19.2,13.8,19.3C13.9,19.3,13.9,19.3,13.8,19.3z"/>
	<path class="st21" d="M8.7,19.5c-0.2-0.1-0.2-0.3-0.3-0.4c0-0.2,0-0.4,0.1-0.6c0,0,0.1-0.1,0.1-0.1c0,0.1,0,0.2,0,0.3
		c0,0.1,0,0.2,0,0.3C8.7,19.2,8.7,19.3,8.7,19.5z"/>
	<path class="st21" d="M10.6,17.7C10.6,17.7,10.6,17.7,10.6,17.7c0.1,0,0.2-0.1,0.2-0.2c0,0,0,0,0.1,0c0,0,0.1,0,0.1,0
		c0.2,0,0.4,0,0.6,0c0.1,0,0.2,0,0.2,0c0,0,0.1,0,0.1,0.1c0,0,0,0,0,0c-0.2,0-0.3,0.1-0.5,0c-0.1,0-0.2,0-0.3,0.1
		c-0.1,0-0.2,0-0.3,0C10.7,17.7,10.7,17.7,10.6,17.7z"/>
	<path class="st23" d="M9.7,19.7c0,0.1,0,0.2,0,0.2c-0.1,0-0.2-0.1-0.3-0.1c-0.1-0.1-0.3-0.2-0.4-0.1c-0.1,0-0.2,0-0.3,0
		c0.1,0,0.2,0,0.4,0c0.1,0,0.2,0,0.3-0.1c0.1,0,0.1,0,0.2,0.1c0,0,0,0,0,0.1C9.6,19.7,9.6,19.7,9.7,19.7z"/>
	<path class="st21" d="M9,19.7c0.2,0,0.3,0.1,0.4,0.1c0.1,0,0.2,0.1,0.3,0.1c0,0,0,0.1,0,0.1C9.5,20,9.3,19.9,9,19.7
		C9,19.8,9,19.8,9,19.7z"/>
	<path class="st23" d="M8.7,19.5c0-0.2,0-0.3-0.1-0.5c0-0.1,0-0.2,0-0.3c0.1-0.1,0-0.2,0-0.3c0-0.1,0-0.1,0-0.2c0,0.5,0,1,0,1.5
		C8.7,19.6,8.7,19.6,8.7,19.5z"/>
	<path class="st15" d="M11.3,14.2c0-0.1,0-0.1,0-0.2c0.1,0,0.1,0,0.2-0.1c0,0,0,0,0.1,0.1C11.5,14.1,11.4,14.1,11.3,14.2z"/>
	<path class="st15" d="M11,14.2c-0.1-0.1-0.1-0.1-0.2-0.2c0,0,0.1-0.1,0.1-0.1C11.1,14,11.1,14,11,14.2z"/>
	<path class="st20" d="M13.5,18.2C13.5,18.2,13.5,18.2,13.5,18.2C13.5,18.2,13.5,18.2,13.5,18.2z"/>
	<path class="st13" d="M10.4,14.3C10.4,14.3,10.4,14.3,10.4,14.3C10.4,14.3,10.4,14.3,10.4,14.3C10.5,14.3,10.5,14.3,10.4,14.3z"/>
	<path class="st13" d="M11.3,18.3C11.3,18.3,11.3,18.2,11.3,18.3c0.1-0.1,0.1-0.1,0.1-0.1c0,0,0.1,0,0.1,0c0,0,0,0,0,0
		c0,0.1,0,0.3,0,0.4c0,0.4,0,0.7,0,1.1c0,0,0,0,0,0c0,0-0.1,0-0.1,0c-0.1,0-0.1,0-0.1-0.1c0-0.1-0.1-0.2-0.1-0.3
		c-0.1-0.2-0.1-0.3-0.2-0.5c0,0.2,0,0.4,0,0.6c0,0.1,0,0.1,0,0.2c-0.1,0-0.2,0-0.3,0c0-0.1,0-0.3,0-0.4c0-0.1,0-0.2,0-0.3
		c0-0.1,0-0.3,0-0.4c0-0.1,0-0.2,0-0.3c0,0,0-0.1,0-0.1c0.1,0,0.1,0,0.2,0c0,0,0.1,0,0.1,0c0,0,0,0.1,0.1,0.1
		c0.1,0.2,0.2,0.5,0.3,0.7c0,0,0,0,0,0c0-0.2,0-0.4,0-0.6C11.3,18.4,11.3,18.3,11.3,18.3z"/>
	<path class="st17" d="M11.8,19.1c0-0.2,0-0.4,0.1-0.6c0.1-0.2,0.3-0.3,0.6-0.2c0.2,0,0.2,0.2,0.3,0.3c-0.1,0-0.2,0.1-0.3,0.1
		c0-0.1-0.1-0.2-0.2-0.2c-0.1,0-0.1,0.1-0.2,0.1c-0.1,0.2-0.1,0.4,0,0.6c0,0.1,0.1,0.2,0.2,0.2c0.1,0,0.2-0.1,0.2-0.3
		c-0.1,0-0.1,0-0.2,0c0-0.1,0-0.2,0-0.3c0.1,0,0.1,0,0.2,0c0.1,0,0.2,0,0.2,0c0,0,0,0,0,0c0,0,0,0,0.1,0c0,0,0,0.1,0,0.1
		c0,0,0,0.1,0,0.1c0,0,0,0,0,0c0,0.2-0.1,0.3-0.2,0.5c-0.1,0-0.2,0.1-0.2,0.1c-0.1,0-0.1,0-0.2,0c0,0,0,0,0,0c0,0,0,0,0,0
		c-0.1-0.1-0.1-0.1-0.2-0.2c0,0,0,0,0-0.1C11.9,19.3,11.8,19.2,11.8,19.1z"/>
	<path class="st24" d="M10.6,17.7c0.1,0,0.2,0,0.2,0c0.1,0,0.2,0,0.3,0c0,0,0,0-0.1,0c0,0,0,0-0.1,0.1c0,0,0,0,0.1,0.1
		c0,0-0.1,0.1-0.1,0.1c-0.1,0,0-0.2-0.2-0.1c-0.2,0-0.5,0.1-0.7,0.1c0,0,0,0,0,0c0,0-0.1-0.1,0-0.1c0.1,0,0.1,0,0.2,0
		c0.1,0,0.1,0,0.2,0C10.5,17.8,10.5,17.8,10.6,17.7z"/>
	<path class="st25" d="M10.9,18.2c-0.1,0-0.1,0-0.2,0c0,0,0,0.1,0,0.1c0,0-0.1,0-0.1,0c-0.1,0-0.2,0.1-0.3,0.1c0-0.1,0-0.1-0.1-0.2
		c0,0,0.1,0,0.1,0c0.2,0,0.4-0.1,0.5-0.1C10.9,18.1,10.9,18.2,10.9,18.2z"/>
	<path class="st26" d="M12.5,18.9c-0.1,0-0.1,0-0.2,0c0,0.1,0,0.2,0,0.3c-0.1,0-0.1,0.1-0.2,0.1c0-0.2,0-0.4,0-0.6
		c0.1,0.1,0.2,0.1,0.2,0.2C12.4,18.9,12.5,18.9,12.5,18.9C12.5,18.9,12.5,18.9,12.5,18.9z"/>
	<path class="st27" d="M10.9,18.1c-0.2,0-0.4,0.1-0.5,0.1c0,0-0.1,0-0.1,0c-0.1,0-0.2,0-0.3,0c0,0,0.1-0.1,0-0.1c0,0,0,0,0.1,0
		c0,0,0.1,0,0.1,0c0.2,0,0.4-0.1,0.7-0.1C10.8,18,10.8,18,10.9,18.1C10.9,18,10.9,18.1,10.9,18.1z"/>
	<path class="st26" d="M11.8,19.1c0,0.1,0.1,0.2,0.1,0.4c-0.1,0.1-0.1,0.1-0.1,0.2c-0.1,0-0.1,0-0.2,0c0-0.4,0-0.7,0-1.1
		c0-0.1,0-0.3,0-0.4c0,0,0.1,0,0.1,0c0,0,0,0.1,0,0.1c0,0.1,0,0.2,0,0.3c0,0,0,0.1,0,0.1c0,0.3,0,0.6,0,0.9c0.1-0.1,0.1-0.1,0.1-0.2
		c0-0.1,0-0.1,0.1-0.2C11.8,19.2,11.8,19.1,11.8,19.1z"/>
	<path class="st28" d="M10.8,18c-0.2,0-0.4,0.1-0.7,0.1c0,0,0-0.1,0-0.1C10.4,18,10.6,17.9,10.8,18C10.8,17.9,10.8,18,10.8,18z"/>
	<path class="st28" d="M12.6,19.6c0.1-0.1,0.2-0.3,0.2-0.5c0,0,0.1,0.1,0.1,0.1c0,0.1,0,0.1,0,0.2c0,0-0.1,0-0.1,0.1
		C12.8,19.6,12.7,19.6,12.6,19.6z"/>
	<path class="st25" d="M11,18.3c0,0,0-0.1-0.1-0.1c0,0,0.1,0,0.1,0C11.1,18.2,11.1,18.3,11,18.3c0.1-0.2,0.2-0.1,0.2-0.1
		c0,0,0,0,0-0.1c0,0,0,0,0,0c0,0,0,0,0,0.1c0,0.1,0,0.1,0,0.2c-0.1,0-0.1,0-0.2-0.1C11.1,18.3,11.1,18.3,11,18.3z"/>
	<path class="st25" d="M12.5,18.9C12.5,18.9,12.5,18.9,12.5,18.9c0-0.1,0.1-0.1,0.1-0.2c0,0,0,0,0.1,0c0,0.1,0.1,0.1,0.1,0.2
		c0,0,0,0-0.1,0c0,0,0,0,0,0C12.7,18.9,12.6,18.9,12.5,18.9z"/>
	<path class="st27" d="M11.9,18.2c0,0.1,0.1,0.1,0.1,0.2c0,0-0.1,0-0.1,0C11.8,18.3,11.8,18.2,11.9,18.2
		C11.8,18.2,11.8,18.2,11.9,18.2z"/>
	<path class="st24" d="M11.3,17.8C11.3,17.8,11.3,17.9,11.3,17.8c0,0.1,0,0.1-0.1,0.2c0,0,0,0,0,0C11.2,17.9,11.3,17.9,11.3,17.8
		C11.3,17.8,11.3,17.8,11.3,17.8z"/>
	<path class="st25" d="M12.8,19.1c0,0,0-0.1,0-0.1C12.9,19,12.9,19,12.8,19.1C12.9,19.1,12.9,19.1,12.8,19.1z"/>
	<path class="st26" d="M11.6,18.2c0,0-0.1,0-0.1,0C11.5,18.2,11.5,18.1,11.6,18.2z"/>
	<path class="st17" d="M10,18.2c0.1,0,0.2,0,0.3,0c0,0.1,0,0.1,0.1,0.2c0,0.1,0.1,0.2,0.1,0.3c0,0.2,0.1,0.3,0.1,0.5
		c0,0.2,0.1,0.3,0.1,0.5c0,0,0,0.1-0.1,0.1c-0.1,0-0.1,0-0.2,0c0,0-0.1,0-0.1-0.1c0-0.1,0-0.1,0-0.2c-0.1,0-0.2,0-0.3,0
		c0,0.1,0,0.2-0.1,0.2c-0.1,0-0.2,0-0.3,0c0,0,0,0,0-0.1c0,0,0-0.1,0-0.1c0-0.2,0.1-0.4,0.1-0.6c0-0.2,0.1-0.4,0.1-0.5
		C9.9,18.4,9.9,18.3,10,18.2C9.9,18.2,9.9,18.2,10,18.2z M10,19c0,0.1,0,0.1,0,0.2c0.1,0,0.1,0,0.1,0c0,0,0,0,0-0.1
		c0-0.2-0.1-0.3-0.1-0.5c0,0,0,0,0,0C10,18.8,10,18.9,10,19z"/>
	<path class="st27" d="M9.9,18.2c0,0.1,0,0.1-0.1,0.2c-0.1,0.1-0.2,0.1-0.2,0.2c0,0,0,0.1,0,0.1c0,0-0.1,0.1-0.1,0.1
		c0,0,0,0.1,0,0.2c0,0-0.1,0-0.1,0c0.1-0.1,0.1-0.2,0.1-0.3C9.6,18.4,9.7,18.3,9.9,18.2C9.8,18.2,9.9,18.2,9.9,18.2z"/>
	<path class="st20" d="M9.4,18.9c0,0,0.1,0,0.1,0c0.1,0,0.1-0.1,0.2-0.1c0,0,0,0.1,0.1,0.1c0,0.2-0.1,0.4-0.1,0.6
		c-0.1,0-0.1-0.1-0.1-0.2c0-0.1,0-0.2,0-0.3C9.5,19,9.4,19,9.4,18.9C9.4,19,9.3,19,9.4,18.9z"/>
	<path class="st24" d="M9,19.1c0.1,0,0.2,0.1,0.2,0.2c0,0.1-0.1,0.2-0.2,0.2C9,19.3,9,19.2,9,19.1z"/>
	<path class="st23" d="M9,18.5c0.1,0,0.2,0,0.2,0.2c0,0.1,0,0.2-0.2,0.2C9,18.7,9,18.6,9,18.5z"/>
	<path class="st24" d="M9.5,19.4c0,0.1,0,0.1,0.1,0.2c0,0,0,0.1,0,0.1c-0.1,0-0.1,0-0.2-0.1C9.4,19.5,9.5,19.4,9.5,19.4z"/>
	<path class="st29" d="M13,19.7c0,0,0,0.1,0,0.1c-0.3,0.1-0.5,0.2-0.8,0.3c-0.2,0.1-0.5,0.1-0.7,0.1c-0.2,0-0.4,0-0.6,0
		c-0.3,0-0.6-0.1-0.9-0.2c0,0,0.1-0.1,0.1-0.1c0,0,0.1,0.1,0.1,0.1c0.3,0,0.6,0.1,0.9,0.1c0.2,0,0.4,0,0.5,0c0.3,0,0.6-0.1,0.8-0.2
		C12.6,19.8,12.8,19.8,13,19.7C13,19.7,13,19.7,13,19.7C13,19.7,13,19.7,13,19.7z"/>
	<path class="st24" d="M13,19.7c-0.2,0.1-0.4,0.2-0.6,0.2c-0.3,0.1-0.5,0.1-0.8,0.2c-0.2,0-0.4,0-0.5,0c-0.3,0-0.6-0.1-0.9-0.1
		c0,0-0.1,0-0.1-0.1c0,0,0-0.1,0.1-0.1c0.1,0,0.2,0,0.3,0.1c0.2,0,0.4,0.1,0.7,0.1c0.1,0,0.2,0,0.2,0c0.1,0,0.1,0,0.2,0
		c0,0,0,0,0.1,0c0.2,0,0.4-0.1,0.7-0.1c0.1,0,0.2-0.1,0.2-0.1c0.1,0,0.2-0.1,0.2-0.1c0.1,0,0.1,0,0.2-0.1c0,0,0.1,0,0.1-0.1
		C13,19.6,13,19.6,13,19.7z"/>
	<path class="st23" d="M13.6,18.5c0.1,0.1,0.1,0.2,0.1,0.3c0,0.1,0,0.2,0,0.4c-0.1,0-0.1,0-0.2,0c0,0,0,0,0,0c0,0,0,0.1,0.1,0.1
		c0.1,0.1,0.1,0.1,0,0.2c-0.1,0-0.2,0-0.3,0c0-0.1,0-0.2,0-0.3c0.1,0,0.2,0,0.2,0c0-0.1,0-0.2,0-0.3c-0.1,0-0.2,0-0.2,0
		c0-0.1,0-0.2,0-0.3C13.4,18.5,13.5,18.5,13.6,18.5z"/>
	<path class="st27" d="M13,19.7C13,19.7,13,19.7,13,19.7c0.2,0,0.4,0,0.6,0c0,0-0.1,0-0.1,0C13.3,19.7,13.2,19.7,13,19.7z"/>
	<path class="st28" d="M11.3,19.9c-0.1,0-0.2,0-0.2,0c-0.2,0-0.4,0-0.7-0.1c-0.1,0-0.2,0-0.3-0.1c0-0.1,0.1-0.1,0.1-0.2
		c0,0,0.1,0,0.1,0.1c0,0,0,0,0.1,0C10.7,19.8,11,19.9,11.3,19.9C11.3,19.9,11.3,19.9,11.3,19.9z"/>
	<path class="st24" d="M9.6,19.7c0.1,0,0.2,0,0.3,0c-0.1,0-0.1,0-0.2,0C9.6,19.7,9.6,19.7,9.6,19.7z"/>
	<path class="st30" d="M10.5,19.2c0-0.2-0.1-0.3-0.1-0.5c0.1-0.1,0.1-0.1,0.2-0.1c0,0,0.1,0,0.1,0c-0.1,0.1-0.1,0.3,0,0.4
		c0,0.1,0,0.2,0,0.3C10.6,19.2,10.5,19.2,10.5,19.2z"/>
	<path class="st27" d="M11.3,19.9c-0.3,0-0.6,0-0.9-0.1c0,0,0,0-0.1,0c0.1,0,0.1,0,0.2,0c0,0,0,0,0.1-0.1c0,0,0.1,0,0.1,0
		c0.1,0,0.2,0,0.3,0c0.1,0,0.2,0,0.2,0C11.2,19.8,11.3,19.8,11.3,19.9z"/>
	<path class="st26" d="M10.7,18.6C10.6,18.6,10.6,18.6,10.7,18.6c-0.2,0-0.2,0.1-0.3,0.1c0-0.1-0.1-0.2-0.1-0.3
		c0.1,0,0.2-0.1,0.3-0.1c0,0,0.1,0,0.1,0C10.7,18.4,10.7,18.5,10.7,18.6C10.7,18.6,10.7,18.6,10.7,18.6z"/>
	<path class="st20" d="M11,18.3c0.1,0,0.1,0,0.1,0.1c0,0,0.1,0,0.2,0.1c0,0.2,0,0.4,0,0.6c0,0,0,0,0,0C11.2,18.8,11.1,18.6,11,18.3z
		"/>
	<path class="st20" d="M11.3,19.9c0,0,0-0.1,0-0.1c0-0.1,0-0.2,0-0.3c0,0,0-0.1,0-0.1c0,0.1,0.1,0.2,0.1,0.3c0,0.1,0.1,0.1,0.1,0.1
		c0,0,0.1,0,0.1,0c0,0,0,0.1,0,0.1c0,0-0.1,0.1-0.1,0.1C11.4,19.9,11.3,19.9,11.3,19.9C11.3,19.9,11.3,19.9,11.3,19.9z"/>
	<path class="st27" d="M11.6,19.8C11.6,19.8,11.6,19.7,11.6,19.8c0-0.1,0-0.1,0-0.1c0.1,0,0.1,0,0.2,0c0,0,0,0.1,0,0.1
		c0-0.1,0.1-0.1,0.1-0.2c0.1,0.1,0.1,0.1,0.2,0.2c-0.1,0.1-0.3,0.1-0.4,0.1C11.7,19.8,11.6,19.8,11.6,19.8z"/>
	<path class="st30" d="M11.2,19.4c0,0,0,0.1,0,0.1c-0.1,0-0.1,0-0.2,0c0-0.2,0-0.4,0-0.6C11.1,19,11.1,19.2,11.2,19.4z"/>
	<path class="st26" d="M10.7,19.7c0,0-0.1,0-0.1,0c0-0.2-0.1-0.3-0.1-0.5c0.1,0,0.1,0,0.2,0.1C10.7,19.4,10.7,19.5,10.7,19.7z"/>
	<path class="st25" d="M11,19.5c0.1,0,0.1,0,0.2,0c0,0.1,0,0.2,0,0.3c-0.1,0-0.2,0-0.2,0C11,19.6,11,19.6,11,19.5z"/>
	<path class="st20" d="M10.7,18.6C10.7,18.6,10.7,18.6,10.7,18.6c0,0.1,0,0.3,0,0.4C10.6,18.9,10.6,18.7,10.7,18.6z"/>
	<path class="st28" d="M11.6,19.8c0,0,0.1,0,0.1,0c0.2,0,0.3,0,0.4-0.1c0,0,0,0,0,0c0,0,0,0,0,0c0.1,0,0.1,0,0.2,0
		c-0.1,0-0.2,0.1-0.2,0.1c-0.2,0-0.4,0.1-0.7,0.1c0,0,0,0-0.1,0C11.5,19.9,11.5,19.8,11.6,19.8z"/>
	<path class="st25" d="M12.2,19.2c0.1,0,0.1-0.1,0.2-0.1c0.1,0,0.1,0,0.2,0c0,0.1-0.1,0.3-0.2,0.3C12.3,19.5,12.2,19.4,12.2,19.2z"
		/>
	<path class="st20" d="M11.9,19.5c0,0.1-0.1,0.1-0.1,0.2c0,0,0-0.1,0-0.1C11.8,19.5,11.8,19.5,11.9,19.5
		C11.9,19.5,11.9,19.5,11.9,19.5z"/>
	<path class="st26" d="M12.7,18.9C12.8,18.9,12.8,18.9,12.7,18.9C12.8,18.9,12.8,18.9,12.7,18.9z"/>
	<path class="st27" d="M12.2,19.7C12.2,19.7,12.2,19.7,12.2,19.7C12.2,19.7,12.2,19.7,12.2,19.7z"/>
	<path class="st25" d="M9.7,19C9.7,18.9,9.7,18.9,9.7,19c-0.1-0.1-0.2,0-0.2,0c0-0.1,0-0.1,0-0.2c0,0,0.1-0.1,0.1-0.1
		c0,0,0-0.1,0-0.1c0.1-0.1,0.1-0.1,0.2-0.2C9.8,18.6,9.8,18.8,9.7,19z"/>
	<path class="st26" d="M10,19c0-0.1,0-0.3,0.1-0.4c0,0,0,0,0,0c0,0.2,0.1,0.3,0.1,0.5C10.1,19.2,10.1,19.1,10,19
		C10,19.1,10,19.1,10,19z"/>
	<path class="st20" d="M10,19C10,19.1,10,19.1,10,19c0.1,0.1,0.1,0.1,0.2,0.1c0,0,0,0.1,0,0.1c0,0-0.1,0-0.1,0
		C10,19.2,10,19.1,10,19z"/>
</g>
</svg>
