<svg xmlns="http://www.w3.org/2000/svg" width="82.479" height="77.253" viewBox="0 0 82.479 77.253">
  <g id="icons-04" transform="translate(5 5.771)">
    <rect id="Rectangle_8" data-name="Rectangle 8" width="68.174" height="42.08" rx="7.58" transform="translate(1.919 6.987) rotate(-9.7)" fill="#e9f9ff"/>
    <path id="Rectangle_8_-_Contour" data-name="Rectangle 8 - Contour" d="M2.771,0H67.606a2.774,2.774,0,0,1,2.771,2.771V41.511a2.774,2.774,0,0,1-2.771,2.771H2.771A2.774,2.774,0,0,1,0,41.511V2.771A2.774,2.774,0,0,1,2.771,0ZM67.606,42.08a.569.569,0,0,0,.568-.568V2.771a.569.569,0,0,0-.568-.568H2.771a.569.569,0,0,0-.568.568V41.511a.569.569,0,0,0,.568.568Z" transform="translate(0.648 6.087) rotate(-9.7)" fill="#018539"/>
    <path id="Ligne_7" data-name="Ligne 7" d="M-.471,8.728-.842,6.557l67.2-11.486.371,2.171Z" transform="translate(4.423 10.16)" fill="#018539"/>
    <path id="Ligne_8" data-name="Ligne 8" d="M-3.9-.4a1.1,1.1,0,0,1-1.084-.916,1.1,1.1,0,0,1,.9-1.271l14.038-2.4a1.1,1.1,0,0,1,1.271.9,1.1,1.1,0,0,1-.9,1.271L-3.714-.415A1.109,1.109,0,0,1-3.9-.4Z" transform="translate(53.832 19.997)" fill="#018539"/>
    <rect id="Rectangle_9" data-name="Rectangle 9" width="68.174" height="42.08" rx="7.58" transform="translate(-3.899 28.302)" fill="#fff"/>
    <path id="Rectangle_9_-_Contour" data-name="Rectangle 9 - Contour" d="M-2.229-5H62.606a2.774,2.774,0,0,1,2.771,2.771V36.511a2.774,2.774,0,0,1-2.771,2.771H-2.229A2.774,2.774,0,0,1-5,36.511V-2.229A2.774,2.774,0,0,1-2.229-5ZM62.606,37.08a.569.569,0,0,0,.568-.568V-2.229a.569.569,0,0,0-.568-.568H-2.229a.569.569,0,0,0-.568.568V36.511a.569.569,0,0,0,.568.568Z" transform="translate(0 32.2)" fill="#018539"/>
    <path id="Ligne_9" data-name="Ligne 9" d="M10.342-2.8H-3.9A1.1,1.1,0,0,1-5-3.9,1.1,1.1,0,0,1-3.9-5H10.342a1.1,1.1,0,0,1,1.1,1.1A1.1,1.1,0,0,1,10.342-2.8Z" transform="translate(6.603 52.027)" fill="#018539"/>
    <rect id="Rectangle_10" data-name="Rectangle 10" width="65.353" height="9.717" transform="translate(-2.333 29.79)" fill="#d0dded"/>
    <path id="Ligne_10" data-name="Ligne 10" d="M4.034-2.8H-3.9A1.1,1.1,0,0,1-5-3.9,1.1,1.1,0,0,1-3.9-5H4.034a1.1,1.1,0,0,1,1.1,1.1A1.1,1.1,0,0,1,4.034-2.8Z" transform="translate(50.737 43.406)" fill="#018539"/>
    <path id="Ligne_11" data-name="Ligne 11" d="M.389-2.8H-3.9A1.1,1.1,0,0,1-5-3.9,1.1,1.1,0,0,1-3.9-5H.389a1.1,1.1,0,0,1,1.1,1.1A1.1,1.1,0,0,1,.389-2.8Z" transform="translate(6.603 66.602)" fill="#018539"/>
    <path id="Ligne_12" data-name="Ligne 12" d="M.389-2.8H-3.9A1.1,1.1,0,0,1-5-3.9,1.1,1.1,0,0,1-3.9-5H.389a1.1,1.1,0,0,1,1.1,1.1A1.1,1.1,0,0,1,.389-2.8Z" transform="translate(22.637 66.602)" fill="#018539"/>
    <path id="Ligne_13" data-name="Ligne 13" d="M.392-2.8H-3.9A1.1,1.1,0,0,1-5-3.9,1.1,1.1,0,0,1-3.9-5H.392a1.1,1.1,0,0,1,1.1,1.1A1.1,1.1,0,0,1,.392-2.8Z" transform="translate(38.67 66.602)" fill="#018539"/>
    <path id="Ligne_14" data-name="Ligne 14" d="M.392-2.8H-3.9A1.1,1.1,0,0,1-5-3.9,1.1,1.1,0,0,1-3.9-5H.392a1.1,1.1,0,0,1,1.1,1.1A1.1,1.1,0,0,1,.392-2.8Z" transform="translate(54.704 66.602)" fill="#018539"/>
  </g>
</svg>
