<svg xmlns="http://www.w3.org/2000/svg" width="83.938" height="82.484" viewBox="0 0 83.938 82.484">
  <g id="Calque_6" data-name="Calque 6" transform="translate(3.474 4.977)">
    <path id="Tracé_16" data-name="Tracé 16" d="M123.125,288.839l2.91-5.185,5.2-6.786,5.125-1.487,7.386.272,11.014,1.668,2.352-1.508,3.633-2.574,4.162-1.515,5.841.032,4.224-1.485,2.9-.272,3.043.448,2.139-.215,3.956-1.583,3.084.428,1.775,2.6-.654,2.917-3.288,3.377-5.038,3.777-5.78,4.029-9.9,6.706-5.013,3.151L157.168,297l-5.432.158-7.992.389-6.093,3.176-3.663,2.171,2.675,3.684-2.423,3.29-4.8,3.83-3,1-5.031-5.333-7.143-8.644-4.686-6.473.009-1.666,9.074-6.679Z" transform="translate(-112.259 -237.997)" fill="#e9f9ff"/>
    <path id="Tracé_17" data-name="Tracé 17" d="M169.278,316.648s4.006-10.573,7.839-12.005,14.932-.259,18.634.1,11.472.526,12.831.069,1.988-2.551,1.988-2.551l-13.042-.851-10.4-1.7-7.322-.458-6.546,3.64-4.965,7.461-1.6,2.567Z" transform="translate(-156.302 -261.595)" fill="#d0dded"/>
    <path id="Tracé_18" data-name="Tracé 18" d="M212.475,300.577a1.144,1.144,0,0,1-.664-2.076l.194-.142a7.1,7.1,0,0,1,.606-.414c1.963-1.151,3.969-2.11,5.856-2.993a22.316,22.316,0,0,1,9.831-2.279c1.183.007,2.37.023,3.553.072a18.642,18.642,0,0,0,5.177-.552,17.4,17.4,0,0,0,4.578-1.742c.823-.47,1.614-1.015,2.407-1.559.686-.471,1.372-.941,2.083-1.374,2.526-1.542,5.012-3.283,7.416-4.965l.76-.532,2.707-1.88c2.392-1.656,4.784-3.312,7.127-5.037a16.6,16.6,0,0,0,4.28-4.247,2.76,2.76,0,0,0,.448-2.181,2.294,2.294,0,0,0-1.217-1.44,3.312,3.312,0,0,0-2.532-.033,16.04,16.04,0,0,0-2.889,1.21l-.64.315a2.413,2.413,0,0,1-3.129-.3c-.529-.037-1.175-.13-1.824-.146a10.632,10.632,0,0,0-4.535.99c-.211.087-.414.195-.617.3a5.1,5.1,0,0,1-1.959.684,3.855,3.855,0,0,1-1.088.852,39.891,39.891,0,0,0-5.168,3.408.892.892,0,0,0-.339.421,1.144,1.144,0,1,1-2.145-.8,3.118,3.118,0,0,1,1.118-1.461,41.914,41.914,0,0,1,5.48-3.6,2.534,2.534,0,0,1,1.943-1.1,3.249,3.249,0,0,0,1.1-.432c.266-.139.533-.277.808-.39a13.053,13.053,0,0,1,5.479-1.16,10.552,10.552,0,0,1,2.436.351,2,2,0,0,1,.893.435c.115.1.353-.013.5-.082l.679-.334a18.011,18.011,0,0,1,3.313-1.37,5.522,5.522,0,0,1,4.195.221,4.58,4.58,0,0,1,2.359,2.879,5.01,5.01,0,0,1-.735,4,18.7,18.7,0,0,1-4.848,4.853c-2.361,1.739-4.772,3.407-7.182,5.076l-3.458,2.4c-2.433,1.7-4.949,3.464-7.537,5.045-.677.412-1.328.859-1.979,1.306-.844.579-1.689,1.158-2.58,1.667a19.652,19.652,0,0,1-5.167,1.973,20.888,20.888,0,0,1-5.8.614c-1.164-.048-2.324-.063-3.48-.07a20.091,20.091,0,0,0-8.844,2.062c-1.842.863-3.794,1.8-5.669,2.895a4.819,4.819,0,0,0-.4.281l-.229.167A1.139,1.139,0,0,1,212.475,300.577Z" transform="translate(-190.728 -234.938)" fill="#018539"/>
    <path id="Tracé_19" data-name="Tracé 19" d="M124.5,370.621a3.876,3.876,0,0,1-.479-.03,3.588,3.588,0,0,1-2.463-1.4c-.154-.211-.327-.41-.5-.609l-.26-.3q-3.451-4.119-6.884-8.239l-5.464-6.589c-.52-.634-1.04-1.268-1.568-1.9a3.852,3.852,0,0,1-.75-2.82,3.153,3.153,0,0,1,1.162-2.192c.177-.133.335-.282.495-.428s.291-.267.442-.393l1.117-.932c1.538-1.283,3.074-2.565,4.628-3.83a3.54,3.54,0,0,1,4.1-.339,4.709,4.709,0,0,1,1.141,1.012l.227.25a6.7,6.7,0,0,1,.457.556,1.805,1.805,0,0,0,.5.53,1.294,1.294,0,0,1,.679.792.521.521,0,0,0,.124.225l.6.715c.28.338.56.675.848,1.007.627.726,1.23,1.466,1.833,2.205l.721.882,3.178,3.851c.631.762,1.266,1.529,1.882,2.306.3.385.63.734.957,1.083a13.557,13.557,0,0,1,1.495,1.8,14.259,14.259,0,0,0,.987,1.189,3.744,3.744,0,0,1-.279,5.254q-3.325,2.83-6.72,5.584A3.462,3.462,0,0,1,124.5,370.621Zm-8.238-28.21a1.257,1.257,0,0,0-.82.3c-1.569,1.277-3.1,2.553-4.628,3.83l-1.117.932c-.122.1-.24.211-.359.32-.214.2-.429.392-.662.568a.954.954,0,0,0-.271.632,1.591,1.591,0,0,0,.236,1.093c.527.627,1.053,1.268,1.579,1.909l.953,1.158,4.5,5.418q3.43,4.116,6.88,8.234l.238.278c.213.246.424.493.615.755a1.316,1.316,0,0,0,.9.48,1.273,1.273,0,0,0,.955-.229q3.388-2.749,6.688-5.557a1.457,1.457,0,0,0,.041-2,15.723,15.723,0,0,1-1.144-1.389,11.793,11.793,0,0,0-1.288-1.544c-.373-.4-.744-.8-1.083-1.23-.6-.759-1.227-1.514-1.848-2.263l-3.91-4.746c-.59-.723-1.179-1.446-1.79-2.154-.3-.343-.589-.694-.88-1.045l-.544-.653a2.59,2.59,0,0,1-.46-.692,4.2,4.2,0,0,1-.962-.993,4.387,4.387,0,0,0-.3-.365l-.273-.3a2.883,2.883,0,0,0-.595-.564A1.28,1.28,0,0,0,116.262,342.411Z" transform="translate(-109.58 -293.115)" fill="#018539"/>
    <path id="Tracé_20" data-name="Tracé 20" d="M185.208,309.4a1.14,1.14,0,0,1-1.167-.922,2.357,2.357,0,0,1,1.192-2.4,12.613,12.613,0,0,1,4.917-2.22,34.456,34.456,0,0,1,4.088-.491c.994-.044,1.966-.043,2.94-.042l1.2,0a17.659,17.659,0,0,0,4.49-.645,21.935,21.935,0,0,0,4.729-1.779c.669-.359.812-.592.846-.918a1.322,1.322,0,0,0-.046-.521,3.31,3.31,0,0,0-.356-.947,2.891,2.891,0,0,0-.946-.58,5.183,5.183,0,0,0-1.513-.237c-.375-.024-.749-.049-1.12-.107a.81.81,0,0,1-.584-.082,1.439,1.439,0,0,0-1.088-.058,4.238,4.238,0,0,1-1.576-.024c-.158-.024-.316-.049-.473-.06-.3-.022-.6-.03-.907-.038a10.238,10.238,0,0,1-2.286-.237,3.545,3.545,0,0,0-1.186-.012c-.19.018-.38.035-.575.045a21.364,21.364,0,0,1-2.978-.105c-1.144-.094-2.316-.207-3.464-.385a29.327,29.327,0,0,1-3.426-.814l-1.022-.283a17.814,17.814,0,0,0-3.336-.54c-1.125-.083-2.228-.084-3.337-.084a9.711,9.711,0,0,0-6.61,2.366,21.493,21.493,0,0,0-4.378,5.453c-.286.478-.557.963-.828,1.449a27.026,27.026,0,0,1-2.012,3.233,9.867,9.867,0,0,1-.723.789,1.144,1.144,0,1,1-1.6-1.637,7.6,7.6,0,0,0,.531-.575,25.153,25.153,0,0,0,1.8-2.924c.282-.506.564-1.011.862-1.508a23.682,23.682,0,0,1,4.85-6.013,12.067,12.067,0,0,1,8.1-2.92c1.165,0,2.324,0,3.5.09a20.1,20.1,0,0,1,3.763.611l1.055.292a27.188,27.188,0,0,0,3.158.756c1.094.17,2.21.276,3.327.368a19.181,19.181,0,0,0,2.666.1l.46-.038a5.567,5.567,0,0,1,1.951.07,8.412,8.412,0,0,0,1.793.17c.338.009.676.018,1.01.043.216.015.435.047.653.081a2.5,2.5,0,0,0,.746.05,3.8,3.8,0,0,1,2.268.1,1.438,1.438,0,0,1,.25.018c.295.046.6.064.9.083a7.183,7.183,0,0,1,2.177.38,5.179,5.179,0,0,1,1.7,1.051,4,4,0,0,1,.972,1.919,3.672,3.672,0,0,1,.141,1.459,3.414,3.414,0,0,1-2.057,2.7,24.17,24.17,0,0,1-5.21,1.966,19.888,19.888,0,0,1-5.051.72l-1.224,0c-.939,0-1.878,0-2.818.038a32.216,32.216,0,0,0-3.815.461,10.767,10.767,0,0,0-4.122,1.919,1.242,1.242,0,0,1-1.022,1.355A1.3,1.3,0,0,1,185.208,309.4Z" transform="translate(-152.477 -256.482)" fill="#018539"/>
    <path id="Tracé_21" data-name="Tracé 21" d="M311.824,284.86a1.145,1.145,0,0,1-1.112-1.416,2.626,2.626,0,0,1,1.171-1.615c.221-.157.488-.359.755-.56.4-.3.8-.6,1.222-.879l.629-.425a14.5,14.5,0,0,1,9.812-2.77,2.521,2.521,0,0,1,1.919.921,1.144,1.144,0,1,1-1.753,1.471.3.3,0,0,0-.231-.106,13.375,13.375,0,0,0-6.415,1.143,13.738,13.738,0,0,0-2.042,1.231l-.661.446c-.379.25-.741.523-1.1.8-.288.217-.576.434-.871.64a.411.411,0,0,0-.209.251A1.145,1.145,0,0,1,311.824,284.86Z" transform="translate(-267.346 -244.56)" fill="#018539"/>
    <path id="Tracé_22" data-name="Tracé 22" d="M364.054,284.761a1.144,1.144,0,0,1-.764-2,7.289,7.289,0,0,1,1.151-.844l1.242-.751c1.337-.806,2.673-1.612,3.979-2.463,1.407-.916,3.079-1.984,4.813-2.966.152-.085.307-.16.463-.235.335-.16.543-.267.6-.392a1.144,1.144,0,0,1,2.078.957,3.17,3.17,0,0,1-1.693,1.5c-.111.053-.222.105-.327.164-1.676.948-3.31,1.993-4.687,2.889-1.329.865-2.687,1.685-4.046,2.5l-1.247.754a5.038,5.038,0,0,0-.8.586A1.14,1.14,0,0,1,364.054,284.761Z" transform="translate(-307.627 -242.469)" fill="#018539"/>
    <path id="Tracé_23" data-name="Tracé 23" d="M247.253,117.9c-.883.085-1.771.126-2.65.284a16.755,16.755,0,0,0-7.04,3.029,16.931,16.931,0,0,0-5.393,6.585,17.265,17.265,0,0,0-1.556,5.949,16.245,16.245,0,0,0,.7,6.313,17.082,17.082,0,0,0,5.844,8.445,16.339,16.339,0,0,0,6.1,3.059,17.16,17.16,0,0,0,18.67-7.1,16.666,16.666,0,0,0,2.8-8.132,17.08,17.08,0,0,0-5.434-13.872,16.639,16.639,0,0,0-6.388-3.716,15.232,15.232,0,0,0-4.276-.78c-.442,0-.883-.037-1.325-.057" transform="translate(-205.554 -121.738)" fill="#fff"/>
    <path id="Tracé_23_-_Contour" data-name="Tracé 23 - Contour" d="M243.78,149.438a18.3,18.3,0,0,1-4.67-.607,17.366,17.366,0,0,1-6.528-3.272,18.124,18.124,0,0,1-6.222-9,17.292,17.292,0,0,1-.745-6.75,18.33,18.33,0,0,1,1.658-6.332,18.219,18.219,0,0,1,13.271-10.259c.673-.121,1.354-.179,2.034-.235l.706-.061.143,1.494.07-1.491.416.022c.285.016.57.034.856.034a16.414,16.414,0,0,1,4.64.84,17.86,17.86,0,0,1,6.8,3.964,18.119,18.119,0,0,1,5.794,14.8,17.828,17.828,0,0,1-2.987,8.681A18.3,18.3,0,0,1,243.78,149.438Zm-.389-34.228-.624.054c-.608.05-1.216.1-1.82.207a15.931,15.931,0,0,0-11.6,8.967A16.072,16.072,0,0,0,227.9,130a15.041,15.041,0,0,0,.648,5.879A15.868,15.868,0,0,0,234,143.762a15.12,15.12,0,0,0,5.69,2.855,16.01,16.01,0,0,0,17.43-6.625,15.55,15.55,0,0,0,2.608-7.579,15.851,15.851,0,0,0-5.069-12.952A15.594,15.594,0,0,0,248.7,116a14.132,14.132,0,0,0-3.978-.729c-.287,0-.616-.018-.945-.037l-.391-.021Z" transform="translate(-201.695 -117.9)" fill="#018539"/>
    <path id="Tracé_24" data-name="Tracé 24" d="M280.95,153.175a2.2,2.2,0,0,1,2.148-1.812c.352-.023.712-.034,1.071-.025a2.828,2.828,0,0,1,2.533,1.817,3.786,3.786,0,0,0,.5.771,1.228,1.228,0,0,0,1.373.458,1.455,1.455,0,0,0,1.041-1.254,3.075,3.075,0,0,0-.858-2.288,5.555,5.555,0,0,0-2.537-1.535c-.755-.245-.956-.053-.81-1.181a1.164,1.164,0,0,0-.915-1.373,1.484,1.484,0,0,0-1.791.686,1.965,1.965,0,0,0,0,.817c0,.785,0,.783-.771.968a5.388,5.388,0,0,0-3.073,1.707,4.067,4.067,0,0,0,.686,5.764,11.544,11.544,0,0,0,3.963,1.549,11.457,11.457,0,0,1,2.288.721,1.925,1.925,0,0,1,1.251,2.3,2.174,2.174,0,0,1-1.48,1.563,4.043,4.043,0,0,1-3.661-.21,3.807,3.807,0,0,1-1.373-1.945,4.174,4.174,0,0,0-.355-.661,1.373,1.373,0,0,0-2.542.8,4.389,4.389,0,0,0,1.762,3.318,5.979,5.979,0,0,0,2.331,1.144c.849.247.874.043.86,1.064,0,.485-.048.959.5,1.231a1.856,1.856,0,0,0,1.679,0,.8.8,0,0,0,.474-.808c0-1.247.021-1.229,1.222-1.576a4.756,4.756,0,0,0,3.53-3.135,4.234,4.234,0,0,0-1.954-5.363,21.158,21.158,0,0,0-4.171-1.389,8.237,8.237,0,0,1-1.988-.714,1.7,1.7,0,0,1-.954-1.341" transform="translate(-241.866 -143.949)" fill="#018539"/>
  </g>
</svg>
