<svg xmlns="http://www.w3.org/2000/svg" width="89.001" height="77.155" viewBox="0 0 89.001 77.155">
  <g id="Calque_2" data-name="Calque 2" transform="translate(5 5)">
    <path id="Tracé_25" data-name="Tracé 25" d="M146.386,181.711a30.473,30.473,0,0,0-16.962,17.2,34.173,34.173,0,0,0,0,16.845,50.9,50.9,0,0,0,13.218,20.471h12.4v-5.965h12.049l3.392,5.965h10.529v-9.24l7.954-6.668,7.663-2.867a12.813,12.813,0,0,0,2.748-10.47A33.251,33.251,0,0,1,187.739,193.1l6.757-8.242c-3.655-.961-7.568-1.865-11.728-2.661-3.837-.737-7.511-1.3-11-1.755-3.887-.041-7.989.024-12.283.232C154.878,180.882,150.5,181.249,146.386,181.711Z" transform="translate(-116.669 -165.153)" fill="#e9f9ff"/>
    <path id="Tracé_26" data-name="Tracé 26" d="M145.291,237.6s-4.453-13.871-4.271-27.582c.167-12.565,4.514-25,13.687-26.491,0,0-23.777,3.145-23.777,26.491A32.531,32.531,0,0,0,145.291,237.6Z" transform="translate(-118.673 -167.584)" fill="#d0dded"/>
    <path id="Tracé_27" data-name="Tracé 27" d="M304.72,354.529s16.582-5.089,23.339-14.739h7.72s-3.885,4.707-6.726,5.034-6.96,5.03-6.96,5.03l-2.169,4.093-.393,7.425H310.1Z" transform="translate(-254.768 -289.95)" fill="#d0dded"/>
    <path id="Tracé_28" data-name="Tracé 28" d="M165.666,175.426c.748,0,1.49,0,2.224.012,4.036.517,7.654,1.095,11.19,1.774,3.936.753,7.906,1.654,11.8,2.678l1.634.43-7.4,9.024a32.149,32.149,0,0,0,10.98,12.823l.376.256.081.448a13.866,13.866,0,0,1-2.981,11.356l-.184.222-7.759,2.9-7.424,6.223v9.819H165.961l-3.392-5.965H152.235v5.965H138.32l-.313-.3a52.182,52.182,0,0,1-13.5-20.908,35.4,35.4,0,0,1-.026-17.465,31.715,31.715,0,0,1,17.606-17.934l.138-.056.148-.017c4.41-.495,8.841-.847,13.172-1.047C158.9,175.508,162.3,175.426,165.666,175.426Zm1.814,2.172c-.545,0-1.176,0-1.813,0h0c-3.328,0-6.7.082-10.018.243-4.237.2-8.57.538-12.883,1.019a29.5,29.5,0,0,0-16.221,16.528,33.166,33.166,0,0,0,.04,16.184,49.965,49.965,0,0,0,12.6,19.654h10.883v-5.965h13.764l3.392,5.965h8.813v-8.662l8.484-7.112,7.561-2.829a11.7,11.7,0,0,0,2.408-8.928,34.314,34.314,0,0,1-11.632-14.068l-.275-.612,6.105-7.448c-3.317-.838-6.679-1.584-10.016-2.222-3.493-.671-7.069-1.242-10.933-1.744Z" transform="translate(-112.777 -161.237)" fill="#018539"/>
    <path id="Ligne_15" data-name="Ligne 15" d="M16.352-2.831H-3.915A1.085,1.085,0,0,1-5-3.915,1.085,1.085,0,0,1-3.915-5H16.352a1.085,1.085,0,0,1,1.085,1.085A1.085,1.085,0,0,1,16.352-2.831Z" transform="translate(37.171 26.762)" fill="#018539"/>
    <path id="Tracé_29" data-name="Tracé 29" d="M56.944,287.034a5.424,5.424,0,0,1-2.156-.44,3.7,3.7,0,0,1-2.393-4.228c.586-2.461,2.993-3.336,6.977-3.646a26.494,26.494,0,0,0-7.272-3.851,1.085,1.085,0,0,1,.708-2.05c.786.271,6.931,2.472,9.416,5.768,1.551-.037,3.27-.037,5.149-.036h.7a1.085,1.085,0,1,1,0,2.169h-.7c-1.478,0-2.873,0-4.158.018a4.017,4.017,0,0,1-.672,2.948A6.752,6.752,0,0,1,56.944,287.034ZM61,280.8c-3.718.157-6.15.633-6.492,2.073a1.618,1.618,0,0,0,1.146,1.736c1.423.617,3.546.2,5.083-2.118A1.814,1.814,0,0,0,61,280.8Z" transform="translate(-56.37 -237.458)" fill="#018539"/>
    <circle id="Ellipse_10" data-name="Ellipse 10" cx="11.056" cy="11.056" r="11.056" transform="translate(32.817 -3.915)" fill="#fff"/>
    <path id="Ellipse_10_-_Contour" data-name="Ellipse 10 - Contour" d="M7.14-5A12.14,12.14,0,1,1-5,7.14,12.154,12.154,0,0,1,7.14-5Zm0,22.111A9.971,9.971,0,1,0-2.831,7.14,9.982,9.982,0,0,0,7.14,17.111Z" transform="translate(36.732 0)" fill="#018539"/>
    <circle id="Ellipse_11" data-name="Ellipse 11" cx="3.071" cy="3.071" r="3.071" transform="translate(60.952 33.637)" fill="#018539"/>
  </g>
</svg>
