<svg xmlns="http://www.w3.org/2000/svg" width="13.112" height="14.985" viewBox="0 0 13.112 14.985">
  <path id="Icon_awesome-building" data-name="Icon awesome-building" d="M12.761,14.049h-.585V.7a.7.7,0,0,0-.7-.7H1.639a.7.7,0,0,0-.7.7V14.049H.351A.351.351,0,0,0,0,14.4v.585H13.112V14.4A.351.351,0,0,0,12.761,14.049ZM3.746,2.224A.351.351,0,0,1,4.1,1.873H5.268a.351.351,0,0,1,.351.351V3.4a.351.351,0,0,1-.351.351H4.1A.351.351,0,0,1,3.746,3.4Zm0,2.81A.351.351,0,0,1,4.1,4.683H5.268a.351.351,0,0,1,.351.351V6.2a.351.351,0,0,1-.351.351H4.1A.351.351,0,0,1,3.746,6.2ZM5.268,9.366H4.1a.351.351,0,0,1-.351-.351V7.844A.351.351,0,0,1,4.1,7.493H5.268a.351.351,0,0,1,.351.351V9.015A.351.351,0,0,1,5.268,9.366Zm2.224,4.683H5.619V11.59a.351.351,0,0,1,.351-.351H7.141a.351.351,0,0,1,.351.351ZM9.366,9.015a.351.351,0,0,1-.351.351H7.844a.351.351,0,0,1-.351-.351V7.844a.351.351,0,0,1,.351-.351H9.015a.351.351,0,0,1,.351.351Zm0-2.81a.351.351,0,0,1-.351.351H7.844A.351.351,0,0,1,7.493,6.2V5.034a.351.351,0,0,1,.351-.351H9.015a.351.351,0,0,1,.351.351Zm0-2.81a.351.351,0,0,1-.351.351H7.844A.351.351,0,0,1,7.493,3.4V2.224a.351.351,0,0,1,.351-.351H9.015a.351.351,0,0,1,.351.351Z" fill="#13b67a"/>
</svg>
