<svg xmlns="http://www.w3.org/2000/svg" width="13.708" height="15.993" viewBox="0 0 13.708 15.993">
  <path id="Icon_material-person-pin" data-name="Icon material-person-pin" d="M16.685,3H6.023A1.523,1.523,0,0,0,4.5,4.523V15.185a1.523,1.523,0,0,0,1.523,1.523H9.069l2.285,2.285,2.285-2.285h3.046a1.528,1.528,0,0,0,1.523-1.523V4.523A1.528,1.528,0,0,0,16.685,3ZM11.354,5.513A2.056,2.056,0,1,1,9.3,7.569a2.057,2.057,0,0,1,2.056-2.056Zm4.569,8.149H6.785v-.685c0-1.523,3.046-2.361,4.569-2.361s4.569.838,4.569,2.361Z" transform="translate(-4.5 -3)" fill="#13b67a"/>
</svg>
