<svg xmlns="http://www.w3.org/2000/svg" width="19.646" height="15.717" viewBox="0 0 19.646 15.717">
  <path id="Icon_awesome-user-shield" data-name="Icon awesome-user-shield" d="M19.1,8.322,15.566,6.941a.951.951,0,0,0-.681,0L11.349,8.322a.83.83,0,0,0-.543.764,6.979,6.979,0,0,0,4.08,6.566.952.952,0,0,0,.681,0,6.955,6.955,0,0,0,4.08-6.566A.83.83,0,0,0,19.1,8.322Zm-3.877,5.872v-5.8l2.932,1.145a5.491,5.491,0,0,1-2.932,4.66ZM6.876,7.858A3.929,3.929,0,1,0,2.947,3.929,3.929,3.929,0,0,0,6.876,7.858ZM9.823,9.086a1.744,1.744,0,0,1,.034-.221c-.077,0-.15-.025-.23-.025H9.114a5.344,5.344,0,0,1-4.476,0H4.126A4.127,4.127,0,0,0,0,12.966v1.277a1.474,1.474,0,0,0,1.473,1.473H12.279a1.511,1.511,0,0,0,.589-.123A8.248,8.248,0,0,1,9.823,9.086Z" fill="#fff"/>
</svg>
