<svg xmlns="http://www.w3.org/2000/svg" width="43.744" height="38.883" viewBox="0 0 43.744 38.883">
  <path id="Icon_awesome-map-marked-alt" data-name="Icon awesome-map-marked-alt" d="M21.872,0A9.569,9.569,0,0,0,12.3,9.569c0,4.273,6.254,12.06,8.65,14.887a1.2,1.2,0,0,0,1.838,0c2.4-2.827,8.65-10.614,8.65-14.887A9.569,9.569,0,0,0,21.872,0Zm0,12.759a3.19,3.19,0,1,1,3.19-3.19A3.189,3.189,0,0,1,21.872,12.759ZM1.528,16.4A2.431,2.431,0,0,0,0,18.656v19.01A1.215,1.215,0,0,0,1.666,38.8l10.485-4.772v-17.7A23,23,0,0,1,10.537,12.8ZM21.872,27.315A3.629,3.629,0,0,1,19.1,26.027c-1.493-1.762-3.081-3.768-4.518-5.826V34.022l14.581,4.86V20.2c-1.437,2.057-3.024,4.065-4.518,5.826A3.63,3.63,0,0,1,21.872,27.315ZM42.078,12.239,31.593,17.011V38.883l10.623-4.249a2.43,2.43,0,0,0,1.528-2.256V13.368A1.215,1.215,0,0,0,42.078,12.239Z" fill="#fff"/>
</svg>
