<svg xmlns="http://www.w3.org/2000/svg" width="72.516" height="77.596" viewBox="0 0 72.516 77.596">
  <g id="Calque_4" data-name="Calque 4" transform="translate(5.001 5)">
    <path id="Tracé_30" data-name="Tracé 30" d="M262.374,74.36v52.257a47.123,47.123,0,0,1-44.2,0V74.36a50.894,50.894,0,0,1,44.2,0Z" transform="translate(-195.803 -73.374)" fill="#e9f9ff"/>
    <path id="Tracé_30_-_Contour" data-name="Tracé 30 - Contour" d="M237.837,66.31a51.752,51.752,0,0,1,22.343,5.105l.318.153v52.948l-.3.158a47.685,47.685,0,0,1-44.731,0l-.3-.158V71.569l.318-.153a51.767,51.767,0,0,1,22.346-5.105Zm21.538,5.966a50.637,50.637,0,0,0-21.538-4.842h0a50.649,50.649,0,0,0-21.54,4.842v51.564a46.561,46.561,0,0,0,43.081,0Z" transform="translate(-193.365 -70.936)" fill="#018539"/>
    <path id="Tracé_31" data-name="Tracé 31" d="M232.535,120.087l-1.784,48.908-9.2-2.457-3.383-2.449.127-48.209Z" transform="translate(-195.803 -111.224)" fill="#d0dded"/>
    <path id="Tracé_32" data-name="Tracé 32" d="M236.211,64.31a52.129,52.129,0,0,1,22.506,5.143l.53.255v53.408l-.5.264a48.059,48.059,0,0,1-45.082,0l-.5-.264V69.708l.53-.255a52.144,52.144,0,0,1,22.509-5.143Zm21.163,6.578a50.264,50.264,0,0,0-21.163-4.705h0a50.277,50.277,0,0,0-21.166,4.705v51.1a46.187,46.187,0,0,0,42.332,0Z" transform="translate(-191.739 -69.31)" fill="#018539"/>
    <path id="Tracé_33" data-name="Tracé 33" d="M236.226,118.114h-.407a64.786,64.786,0,0,1-22.036-3.989.936.936,0,0,1,.646-1.757,63.153,63.153,0,0,0,43.566,0,.936.936,0,1,1,.646,1.757A64.745,64.745,0,0,1,236.226,118.114Z" transform="translate(-191.738 -108.322)" fill="#018539"/>
    <path id="Tracé_34" data-name="Tracé 34" d="M236.214,169.358c-.268,0-.535,0-.8,0a64.792,64.792,0,0,1-21.628-3.989.936.936,0,0,1,.646-1.757,63.076,63.076,0,0,0,43.558,0,.936.936,0,0,1,.646,1.757A64.722,64.722,0,0,1,236.214,169.358Z" transform="translate(-191.738 -149.968)" fill="#018539"/>
    <path id="Tracé_35" data-name="Tracé 35" d="M236.192,223.431q-.425,0-.85-.006a62.781,62.781,0,0,1-21.571-4.136.936.936,0,0,1,.668-1.749,60.968,60.968,0,0,0,43.536,0,.936.936,0,1,1,.668,1.749A62.714,62.714,0,0,1,236.192,223.431Z" transform="translate(-191.738 -193.8)" fill="#018539"/>
    <path id="Tracé_36" data-name="Tracé 36" d="M236.2,276.246l-.644,0a85.235,85.235,0,0,1-21.7-2.986.936.936,0,1,1,.492-1.807,83.193,83.193,0,0,0,43.713,0,.936.936,0,0,1,.492,1.807A85.119,85.119,0,0,1,236.2,276.246Z" transform="translate(-191.738 -237.641)" fill="#018539"/>
    <path id="Tracé_37" data-name="Tracé 37" d="M236.225,331.356a61.983,61.983,0,0,1-22.458-4.2.936.936,0,1,1,.675-1.746,60.189,60.189,0,0,0,43.528,0,.936.936,0,0,1,.676,1.746,62.056,62.056,0,0,1-20.5,4.169Q237.183,331.356,236.225,331.356Z" transform="translate(-191.738 -281.473)" fill="#018539"/>
    <path id="Tracé_38" data-name="Tracé 38" d="M121.2,305.647v26.587a88.657,88.657,0,0,1-44.2,0V305.647a96.434,96.434,0,0,1,44.2,0Z" transform="translate(-81.065 -263.374)" fill="#e9f9ff"/>
    <path id="Tracé_39" data-name="Tracé 39" d="M91.365,304.69l.215,30.665-11.2-1.3L77,332.756l.125-25.541Z" transform="translate(-81.065 -264.683)" fill="#d0dded"/>
    <path id="Tracé_40" data-name="Tracé 40" d="M95.037,298.08h.092a95.287,95.287,0,0,1,22.235,2.594l.713.175v28.039l-.692.187a89.591,89.591,0,0,1-44.692,0L72,328.887V300.849l.713-.175A95.293,95.293,0,0,1,95.037,298.08Zm21.168,4.241a93.843,93.843,0,0,0-21.078-2.369l-.09-.936v.936a93.847,93.847,0,0,0-21.164,2.369v25.128a87.982,87.982,0,0,0,42.332,0Z" transform="translate(-77.001 -259.31)" fill="#018539"/>
    <path id="Tracé_41" data-name="Tracé 41" d="M95.037,341.4A62.839,62.839,0,0,1,72.6,337.25a.936.936,0,1,1,.668-1.749,60.915,60.915,0,0,0,43.536,0,.936.936,0,0,1,.668,1.749A62.839,62.839,0,0,1,95.037,341.4Z" transform="translate(-77 -289.674)" fill="#018539"/>
    <path id="Tracé_42" data-name="Tracé 42" d="M95.037,400.277A62.025,62.025,0,0,1,72.6,396.068a.936.936,0,0,1,.677-1.746,60.056,60.056,0,0,0,43.527,0,.936.936,0,0,1,.677,1.746A62.025,62.025,0,0,1,95.037,400.277Z" transform="translate(-77 -337.481)" fill="#018539"/>
  </g>
</svg>
