<svg xmlns="http://www.w3.org/2000/svg" width="23.777" height="23.822" viewBox="0 0 23.777 23.822">
  <path id="Icon_feather-phone" data-name="Icon feather-phone" d="M25.942,20.085v3.435a2.29,2.29,0,0,1-2.5,2.29A22.662,22.662,0,0,1,13.563,22.3a22.33,22.33,0,0,1-6.871-6.871A22.662,22.662,0,0,1,3.177,5.5,2.29,2.29,0,0,1,5.456,3H8.891a2.29,2.29,0,0,1,2.29,1.97,14.7,14.7,0,0,0,.8,3.218,2.29,2.29,0,0,1-.515,2.416l-1.454,1.454a18.322,18.322,0,0,0,6.871,6.871l1.454-1.454a2.29,2.29,0,0,1,2.416-.515,14.7,14.7,0,0,0,3.218.8,2.29,2.29,0,0,1,1.97,2.325Z" transform="translate(-2.667 -2.5)" fill="#fff" stroke="#018539" stroke-linecap="round" stroke-linejoin="round" stroke-width="1"/>
</svg>
