<svg xmlns="http://www.w3.org/2000/svg" width="69.871" height="73.464" viewBox="0 0 69.871 73.464">
  <g id="Calque_5" data-name="Calque 5" transform="translate(5 4.91)">
    <rect id="Rectangle_6" data-name="Rectangle 6" width="45.066" height="71.417" rx="3" transform="translate(-3.976 -3.886)" fill="#e9f9ff"/>
    <path id="Tracé_1" data-name="Tracé 1" d="M140.056,101.952s-6.564-.573-8.136,6.1v59.221s.774,6.1,6.1,6.1h7.749V101.952Z" transform="translate(-135.896 -105.844)" fill="#d0dded"/>
    <path id="Rectangle_7" data-name="Rectangle 7" d="M2.774-5H34.339a7.782,7.782,0,0,1,7.774,7.774V60.69a7.782,7.782,0,0,1-7.774,7.774H2.774A7.782,7.782,0,0,1-5,60.69V2.774A7.782,7.782,0,0,1,2.774-5ZM34.339,66.417a5.733,5.733,0,0,0,5.726-5.726V2.774a5.733,5.733,0,0,0-5.726-5.726H2.774A5.733,5.733,0,0,0-2.953,2.774V60.69a5.733,5.733,0,0,0,5.726,5.726Z" transform="translate(0 0.09)" fill="#018539"/>
    <path id="Ligne_1" data-name="Ligne 1" d="M41.091-2.953H-3.976A1.024,1.024,0,0,1-5-3.976,1.024,1.024,0,0,1-3.976-5H41.091a1.024,1.024,0,0,1,1.024,1.024A1.024,1.024,0,0,1,41.091-2.953Z" transform="translate(0 59.829)" fill="#018539"/>
    <path id="Ligne_2" data-name="Ligne 2" d="M41.091-2.953H-3.976A1.024,1.024,0,0,1-5-3.976,1.024,1.024,0,0,1-3.976-5H41.091a1.024,1.024,0,0,1,1.024,1.024A1.024,1.024,0,0,1,41.091-2.953Z" transform="translate(0 11.17)" fill="#018539"/>
    <path id="Ligne_3" data-name="Ligne 3" d="M7.4-2.953H-3.976A1.024,1.024,0,0,1-5-3.976,1.024,1.024,0,0,1-3.976-5H7.4A1.024,1.024,0,0,1,8.426-3.976,1.024,1.024,0,0,1,7.4-2.953Z" transform="translate(16.919 65.668)" fill="#018539"/>
    <path id="Ligne_4" data-name="Ligne 4" d="M13.866-2.953H-3.976A1.024,1.024,0,0,1-5-3.976,1.024,1.024,0,0,1-3.976-5H13.866A1.024,1.024,0,0,1,14.89-3.976,1.024,1.024,0,0,1,13.866-2.953Z" transform="translate(6.987 53.542)" fill="#018539"/>
    <circle id="Ellipse_2" data-name="Ellipse 2" cx="0.999" cy="0.999" r="0.999" transform="translate(12.742 0.78)" fill="#018539"/>
    <circle id="Ellipse_3" data-name="Ellipse 3" cx="0.999" cy="0.999" r="0.999" transform="translate(17.733 0.78)" fill="#018539"/>
    <circle id="Ellipse_4" data-name="Ellipse 4" cx="0.999" cy="0.999" r="0.999" transform="translate(22.749 0.78)" fill="#018539"/>
    <path id="Tracé_2" data-name="Tracé 2" d="M279.266,191.25H242.834A4.842,4.842,0,0,0,238,196.09v17.568a4.842,4.842,0,0,0,4.842,4.842h5.04v7.935l10.992-7.935h20.4a4.84,4.84,0,0,0,4.832-4.842V196.09a4.84,4.84,0,0,0-4.84-4.84Z" transform="translate(-220.258 -176.87)" fill="#fff"/>
    <path id="Tracé_2_-_Contour" data-name="Tracé 2 - Contour" d="M238.856,186.25h36.434a5.864,5.864,0,0,1,5.864,5.864v17.568a5.872,5.872,0,0,1-5.854,5.866h-20.07l-12.347,8.913v-8.913h-4.017A5.872,5.872,0,0,1,233,209.682V192.114A5.875,5.875,0,0,1,238.856,186.25ZM275.3,213.5a3.821,3.821,0,0,0,3.808-3.818V192.114a3.816,3.816,0,0,0-3.816-3.816h-36.43a3.824,3.824,0,0,0-3.812,3.817v17.568a3.823,3.823,0,0,0,3.818,3.818h6.064v6.958l9.637-6.958Z" transform="translate(-216.282 -172.894)" fill="#018539"/>
    <path id="Ligne_5" data-name="Ligne 5" d="M29.545-2.953H0V-5H29.545Z" transform="translate(26.518 27.84)" fill="#018539"/>
    <path id="Ligne_6" data-name="Ligne 6" d="M21.36-2.953H0V-5H21.36Z" transform="translate(26.518 36.622)" fill="#018539"/>
  </g>
</svg>
